<?xml version="1.0" encoding="iso-8859-1"?>
<!-- Generator: Adobe Illustrator 19.0.0, SVG Export Plug-In . SVG Version: 6.00 Build 0)  -->
<svg version="1.1" id="Capa_1" xmlns="http://www.w3.org/2000/svg" xmlns:xlink="http://www.w3.org/1999/xlink" x="0px" y="0px"
	 viewBox="0 0 512 512" style="enable-background:new 0 0 512 512;" xml:space="preserve">
<circle style="fill:#1E499E;" cx="256" cy="256" r="256"/>
<path style="fill:#0E387C;" d="M512,256c0-5.31-0.181-10.577-0.5-15.806L396.936,125.629L112.11,383.104l128.418,128.417
	C245.648,511.827,250.803,512,256,512C397.385,512,512,397.385,512,256z"/>
<circle style="fill:#44C4FC;" cx="256" cy="256" r="192"/>
<path style="fill:#29ACE5;" d="M256,64c-0.016,0-0.032,0-0.048,0v384c0.016,0,0.032,0,0.048,0c106.039,0,192-85.961,192-192
	S362.039,64,256,64z"/>
<polygon style="fill:#FFFFFF;" points="210.76,371.307 125.779,286.326 162.549,249.557 210.76,297.768 349.451,159.078 
	386.221,195.847 "/>
<polygon style="fill:#E0E0E0;" points="349.451,159.078 255.952,252.576 255.952,326.115 386.221,195.847 "/>
<g>
</g>
<g>
</g>
<g>
</g>
<g>
</g>
<g>
</g>
<g>
</g>
<g>
</g>
<g>
</g>
<g>
</g>
<g>
</g>
<g>
</g>
<g>
</g>
<g>
</g>
<g>
</g>
<g>
</g>
</svg>
