<?xml version="1.0" encoding="iso-8859-1"?>
<!-- Generator: Adobe Illustrator 19.0.0, SVG Export Plug-In . SVG Version: 6.00 Build 0)  -->
<svg version="1.1" id="Capa_1" xmlns="http://www.w3.org/2000/svg" xmlns:xlink="http://www.w3.org/1999/xlink" x="0px" y="0px"
	 viewBox="0 0 512 512" style="enable-background:new 0 0 512 512;" xml:space="preserve">
<rect x="7.515" y="85.667" style="fill:#B0BEC5;" width="454.888" height="66.129"/>
<path style="fill:#ED593B;" d="M7.515,436.352c0,16.601,13.457,30.059,30.059,30.059h394.771c16.601,0,30.059-13.457,30.059-30.059
	V151.796H7.515V436.352z"/>
<path style="fill:#D8D7DA;" d="M49.597,45.589v40.078h412.806v340.665h12.023c16.601,0,30.059-13.457,30.059-30.059V45.589H49.597z"
	/>
<g>
	<rect x="94.685" y="346.176" style="fill:#FDD835;" width="120.235" height="30.059"/>
	<rect x="254.998" y="346.176" style="fill:#FDD835;" width="120.235" height="30.059"/>
</g>
<rect x="74.646" y="181.855" style="fill:#80D8FF;" width="320.626" height="130.254"/>
<g>
	<path style="fill:#9CCC65;" d="M119.734,231.953L119.734,231.953c-8.3,0-15.029,6.729-15.029,15.029v20.039
		c0,8.3,6.729,15.029,15.029,15.029l0,0c8.3,0,15.029-6.729,15.029-15.029v-20.039C134.763,238.682,128.034,231.953,119.734,231.953
		z"/>
	<path style="fill:#9CCC65;" d="M149.793,241.973L149.793,241.973c-8.3,0-15.029,6.729-15.029,15.029v10.02
		c0,8.3,6.729,15.029,15.029,15.029l0,0c8.3,0,15.029-6.729,15.029-15.029v-10.02C164.822,248.702,158.093,241.973,149.793,241.973z
		"/>
</g>
<rect x="7.515" y="131.757" style="fill:#90A4AE;" width="454.888" height="20.039"/>
<rect x="7.515" y="151.796" style="fill:#E23423;" width="454.888" height="20.039"/>
<rect x="74.646" y="292.07" style="fill:#40C4FF;" width="320.626" height="20.039"/>
<polygon style="fill:#9CCC65;" points="347.178,215.922 283.573,277.599 245.98,240.971 175.843,312.11 395.272,312.11 
	395.272,257.002 "/>
<g>
	<polygon style="fill:#7CB342;" points="268.65,292.07 283.573,277.599 269.215,263.609 239.864,292.07 195.6,292.07 
		175.843,312.11 395.272,312.11 395.272,292.07 	"/>
	<path style="fill:#7CB342;" d="M119.734,262.012c-8.3,0-15.029-6.729-15.029-15.029v20.039c0,8.3,6.729,15.029,15.029,15.029
		s15.029-6.729,15.029-15.029v-20.039C134.763,255.283,128.034,262.012,119.734,262.012z"/>
	<path style="fill:#7CB342;" d="M149.793,262.012c-6.541,0-12.091-4.186-14.156-10.02c-0.555,1.569-0.874,3.25-0.874,5.01v10.02
		c0,8.3,6.729,15.029,15.029,15.029c8.3,0,15.029-6.729,15.029-15.029v-10.02c0-1.759-0.318-3.441-0.874-5.01
		C161.883,257.826,156.333,262.012,149.793,262.012z"/>
</g>
<path style="fill:#ACABB1;" d="M482.442,405.204V65.628H49.597v20.039h412.806v340.665h12.023c16.601,0,30.059-13.457,30.059-30.059
	v-20.039C504.485,390.059,495.15,401.696,482.442,405.204z"/>
<rect x="140.274" y="111.217" width="259.507" height="15.029"/>
<rect x="414.81" y="111.217" width="15.029" height="15.029"/>
<rect x="194.38" y="38.074" width="15.029" height="15.029"/>
<rect x="434.849" y="38.074" width="15.029" height="15.029"/>
<rect x="374.732" y="38.074" width="15.029" height="15.029"/>
<rect x="404.791" y="38.074" width="15.029" height="15.029"/>
<rect x="104.204" y="38.074" width="15.029" height="15.029"/>
<rect x="134.262" y="38.074" width="15.029" height="15.029"/>
<rect x="164.321" y="38.074" width="15.029" height="15.029"/>
<rect x="254.497" y="38.074" width="15.029" height="15.029"/>
<rect x="314.614" y="38.074" width="15.029" height="15.029"/>
<rect x="284.556" y="38.074" width="15.029" height="15.029"/>
<rect x="224.438" y="38.074" width="15.029" height="15.029"/>
<rect x="344.673" y="38.074" width="15.029" height="15.029"/>
<path d="M496.971,396.274c0,12.431-10.113,22.544-22.544,22.544h-4.509V78.153H57.112V53.104h32.564V38.074H42.082v40.078H0v358.2
	c0,20.718,16.855,37.573,37.573,37.573h394.771c20.718,0,37.573-16.855,37.573-37.573v-2.505h4.509
	c20.718,0,37.573-16.855,37.573-37.573v-25.049h-15.029V396.274z M454.888,436.352c0,12.431-10.113,22.544-22.544,22.544H37.573
	c-12.431,0-22.544-10.113-22.544-22.544V159.311h439.859V436.352z M454.888,144.282H15.029v-51.1h439.859V144.282z"/>
<polygon points="464.407,38.074 464.407,53.104 496.971,53.104 496.971,85.667 512,85.667 512,38.074 "/>
<path d="M402.787,174.341H67.131v145.284h335.656V174.341z M119.734,274.536c-4.144,0-7.515-3.371-7.515-7.515v-20.039
	c0-4.144,3.371-7.515,7.515-7.515s7.515,3.371,7.515,7.515v10.02v10.02C127.249,271.166,123.878,274.536,119.734,274.536z
	 M142.278,304.595h-15.029v-16.322c2.799-0.993,5.345-2.522,7.515-4.466c2.169,1.944,4.715,3.474,7.515,4.466V304.595z
	 M149.793,274.536c-4.144,0-7.515-3.371-7.515-7.515v-10.02c0-4.144,3.371-7.515,7.515-7.515c4.144,0,7.515,3.371,7.515,7.515v10.02
	C157.307,271.166,153.937,274.536,149.793,274.536z M193.806,304.595l52.281-53.029l26.705,26.02l-27.852,27.009H193.806z
	 M387.757,304.595H266.529l80.97-78.516l40.259,34.387V304.595z M387.757,240.7l-40.9-34.935l-63.273,61.355l-37.712-36.745
	l-73.174,74.22h-15.392v-16.322c8.746-3.102,15.029-11.454,15.029-21.251v-10.02c0-12.431-10.113-22.544-22.544-22.544
	c-3.575,0-6.957,0.841-9.962,2.328c-3.729-7.319-11.334-12.347-20.096-12.347c-12.431,0-22.544,10.113-22.544,22.544v20.039
	c0,9.797,6.283,18.149,15.029,21.251v16.322H82.16V189.37h305.597V240.7z"/>
<path d="M87.17,383.75h135.264v-45.088H87.17V383.75z M102.2,353.691h105.205v15.029H102.2V353.691z"/>
<path d="M247.483,383.75h135.264v-45.088H247.483V383.75z M262.513,353.691h105.205v15.029H262.513V353.691z"/>
<rect x="496.971" y="311.108" width="15.029" height="15.029"/>
<rect x="496.971" y="130.755" width="15.029" height="15.029"/>
<rect x="496.971" y="190.873" width="15.029" height="15.029"/>
<rect x="496.971" y="160.814" width="15.029" height="15.029"/>
<rect x="496.971" y="100.697" width="15.029" height="15.029"/>
<rect x="496.971" y="281.049" width="15.029" height="15.029"/>
<rect x="496.971" y="341.166" width="15.029" height="15.029"/>
<rect x="496.971" y="250.99" width="15.029" height="15.029"/>
<rect x="496.971" y="220.932" width="15.029" height="15.029"/>
<g>
	<path style="fill:#FFFFFF;" d="M105.706,126.247H90.677v-15.029h15.029V126.247z M75.648,126.247H60.618v-15.029h15.029V126.247z
		 M45.589,126.247H30.56v-15.029h15.029V126.247z"/>
	<path style="fill:#FFFFFF;" d="M256,219.429h-15.029v-15.029H256V219.429z M225.941,219.429h-70.137v-15.029h70.137V219.429z"/>
	<path style="fill:#FFFFFF;" d="M214.92,413.808h-90.176v-15.029h90.176V413.808z M109.714,413.808H94.685v-15.029h15.029V413.808z"
		/>
	<path style="fill:#FFFFFF;" d="M375.233,413.808h-90.176v-15.029h90.176V413.808z M270.027,413.808h-15.029v-15.029h15.029V413.808
		z"/>
</g>
<g>
</g>
<g>
</g>
<g>
</g>
<g>
</g>
<g>
</g>
<g>
</g>
<g>
</g>
<g>
</g>
<g>
</g>
<g>
</g>
<g>
</g>
<g>
</g>
<g>
</g>
<g>
</g>
<g>
</g>
</svg>
