<?xml version="1.0" encoding="iso-8859-1"?>
<!-- Generator: Adobe Illustrator 19.0.0, SVG Export Plug-In . SVG Version: 6.00 Build 0)  -->
<svg version="1.1" id="Capa_1" xmlns="http://www.w3.org/2000/svg" xmlns:xlink="http://www.w3.org/1999/xlink" x="0px" y="0px"
	 viewBox="0 0 512 512" style="enable-background:new 0 0 512 512;" xml:space="preserve">
<rect x="178.93" y="296" style="fill:#A5DC69;" width="323.07" height="206"/>
<rect x="178.93" y="10" style="fill:#C8F5FF;" width="323.07" height="140.05"/>
<polygon style="fill:#A5DC69;" points="400.388,150.05 319,68.662 237.612,150.05 "/>
<polygon style="fill:#46C373;" points="493.667,146.079 391.921,44.333 343.296,92.958 397.336,146.998 "/>
<path style="fill:#6E87F5;" d="M9.935,430V227.5c0-16.292,13.208-29.5,29.5-29.5h141c16.292,0,29.5,13.208,29.5,29.5v245
	c0,16.292-13.208,29.5-29.5,29.5h-141c-16.292,0-29.5-13.208-29.5-29.5L9.935,430"/>
<rect x="9.935" y="256.13" style="fill:#FFFFFF;" width="200" height="191.87"/>
<rect x="416" y="192" style="fill:#FF5A5A;" width="54" height="54"/>
<rect x="311.74" y="192" style="fill:#78D2FA;" width="54" height="54"/>
<rect x="208.81" y="192" style="fill:#F5C86E;" width="54" height="54"/>
<circle style="fill:#FF5A5A;" cx="110" cy="332" r="36"/>
<circle style="fill:#FFFFFF;" cx="338.8" cy="377.23" r="36"/>
<circle style="fill:#F5C86E;" cx="238" cy="70" r="20"/>
<path d="M502,0H178c-5.523,0-10,4.478-10,10v178H39.5C17.72,188,0,205.72,0,227.5v28.627V448v24.5C0,494.28,17.72,512,39.5,512H502
	c5.523,0,10-4.478,10-10V10C512,4.478,507.523,0,502,0z M404.53,140.05l-47.092-47.092l34.482-34.482l81.574,81.574H404.53z
	 M376.245,140.05h-114.49L319,82.805L376.245,140.05z M492,20v110.27l-93.008-93.008c-1.875-1.875-4.419-2.929-7.071-2.929
	s-5.196,1.054-7.071,2.929l-41.554,41.554l-17.225-17.225c-3.905-3.904-10.237-3.904-14.143,0L233.47,140.05H188V20H492z M39.5,208
	h141c10.752,0,19.5,8.748,19.5,19.5v18.627H20V227.5C20,216.748,28.748,208,39.5,208z M20,266.127h180V438H20V266.127z M178,492
	H39.5c-10.752,0-19.5-8.748-19.5-19.5V458h180v14.5c0,10.752-8.748,19.5-19.5,19.5H178z M214.83,492
	c3.283-5.758,5.17-12.411,5.17-19.5v-245c0-19.216-13.795-35.262-32-38.777V160.05h304V492H214.83z"/>
<path d="M454.02,285.97c-2.63,0-5.21,1.061-7.07,2.93c-1.86,1.86-2.93,4.44-2.93,7.07s1.07,5.21,2.93,7.07
	c1.86,1.859,4.44,2.93,7.07,2.93s5.21-1.07,7.07-2.93c1.86-1.86,2.93-4.44,2.93-7.07s-1.07-5.21-2.93-7.07
	C459.23,287.03,456.65,285.97,454.02,285.97z"/>
<path d="M426,295.969c0-5.522-4.477-10-10-10H247.167c-5.523,0-10,4.478-10,10s4.477,10,10,10H416
	C421.523,305.969,426,301.491,426,295.969z"/>
<path d="M470,182h-54c-5.523,0-10,4.478-10,10v54c0,5.522,4.477,10,10,10h54c5.523,0,10-4.478,10-10v-54
	C480,186.478,475.523,182,470,182z M460,236h-34v-34h34V236z"/>
<path d="M313,256h54c5.523,0,10-4.478,10-10v-54c0-5.522-4.477-10-10-10h-54c-5.523,0-10,4.478-10,10v54
	C303,251.522,307.477,256,313,256z M323,202h34v34h-34V202z"/>
<path d="M254,236h-7.667c-5.523,0-10,4.478-10,10s4.477,10,10,10H264c5.523,0,10-4.478,10-10v-54c0-5.522-4.477-10-10-10h-33.667
	c-5.523,0-10,4.478-10,10s4.477,10,10,10H254V236z"/>
<path d="M264.904,353.757c-3.905-3.904-10.237-3.904-14.142,0l-16.405,16.406c-3.905,3.905-3.905,10.237,0,14.143l16.405,16.405
	c1.953,1.952,4.512,2.929,7.071,2.929s5.119-0.977,7.071-2.929c3.905-3.905,3.905-10.237,0-14.143l-9.334-9.334l9.334-9.335
	C268.81,363.993,268.81,357.662,264.904,353.757z"/>
<path d="M438.666,353.757c-3.905-3.903-10.237-3.903-14.142,0c-3.905,3.905-3.906,10.237,0,14.143l9.335,9.335l-9.334,9.334
	c-3.905,3.905-3.906,10.237,0,14.143c1.953,1.952,4.512,2.929,7.071,2.929c2.559,0,5.119-0.977,7.071-2.929l16.406-16.405
	c1.875-1.875,2.929-4.419,2.929-7.071s-1.054-5.195-2.929-7.071L438.666,353.757z"/>
<path d="M85.208,237h49.502c5.523,0,10-4.478,10-10s-4.477-10-10-10H85.208c-5.523,0-10,4.478-10,10S79.685,237,85.208,237z"/>
<path d="M110.065,465h-0.13c-5.523,0-10,4.478-10,10s4.477,10,10,10h0.13c5.523,0,10-4.478,10-10S115.588,465,110.065,465z"/>
<path d="M110,378c25.364,0,46-20.636,46-46s-20.636-46-46-46s-46,20.636-46,46S84.636,378,110,378z M110,306
	c14.336,0,26,11.663,26,26s-11.664,26-26,26s-26-11.663-26-26S95.664,306,110,306z"/>
<path d="M112.5,395H74c-5.523,0-10,4.478-10,10s4.477,10,10,10h38.5c5.523,0,10-4.478,10-10S118.023,395,112.5,395z"/>
<path d="M145.87,395c-2.63,0-5.21,1.069-7.07,2.93s-2.93,4.44-2.93,7.07s1.07,5.21,2.93,7.069c1.86,1.86,4.44,2.931,7.07,2.931
	s5.21-1.07,7.07-2.931c1.86-1.859,2.93-4.439,2.93-7.069s-1.07-5.21-2.93-7.07S148.5,395,145.87,395z"/>
<path d="M338.801,331.234c-25.364,0-46,20.636-46,46s20.636,46,46,46s46-20.636,46-46S364.166,331.234,338.801,331.234z
	 M338.801,403.234c-14.336,0-26-11.663-26-26s11.664-26,26-26s26,11.663,26,26S353.138,403.234,338.801,403.234z"/>
<path d="M374.671,443.333h-71.87c-5.523,0-10,4.478-10,10s4.477,10,10,10h71.87c5.523,0,10-4.478,10-10
	S380.194,443.333,374.671,443.333z"/>
<path d="M238,100c16.542,0,30-13.458,30-30s-13.458-30-30-30s-30,13.458-30,30S221.458,100,238,100z M238,60c5.514,0,10,4.486,10,10
	s-4.486,10-10,10s-10-4.486-10-10S232.486,60,238,60z"/>
<g>
</g>
<g>
</g>
<g>
</g>
<g>
</g>
<g>
</g>
<g>
</g>
<g>
</g>
<g>
</g>
<g>
</g>
<g>
</g>
<g>
</g>
<g>
</g>
<g>
</g>
<g>
</g>
<g>
</g>
</svg>
