<?xml version="1.0" encoding="iso-8859-1"?>
<!-- Generator: Adobe Illustrator 19.0.0, SVG Export Plug-In . SVG Version: 6.00 Build 0)  -->
<svg version="1.1" id="Capa_1" xmlns="http://www.w3.org/2000/svg" xmlns:xlink="http://www.w3.org/1999/xlink" x="0px" y="0px"
	 viewBox="0 0 512 512" style="enable-background:new 0 0 512 512;" xml:space="preserve">
<path style="fill:#FFFFFF;" d="M82,502H50c-22.091,0-40-17.909-40-40V50c0-22.091,17.909-40,40-40h412c22.091,0,40,17.909,40,40v412
	c0,22.091-17.909,40-40,40h-41H82z"/>
<path style="fill:#78D2FA;" d="M462,10H50c-22.091,0-40,17.909-40,40v32h492V50C502,27.909,484.091,10,462,10z"/>
<path style="fill:#FF5A5A;" d="M436.333,256H327.667c-6.443,0-11.667-5.223-11.667-11.667V135.667
	c0-6.443,5.223-11.667,11.667-11.667h108.667c6.443,0,11.667,5.223,11.667,11.667v108.667C448,250.777,442.777,256,436.333,256z"/>
<path style="fill:#C8F5FF;" d="M239.667,124H80.333C71.313,124,64,131.313,64,140.333v159.333C64,308.687,71.313,316,80.333,316
	h159.333c9.021,0,16.333-7.313,16.333-16.333V140.333C256,131.313,248.687,124,239.667,124z"/>
<g>
	<path style="fill:#A5DC69;" d="M103.131,246.095l-38.947,55.893c1.13,7.918,7.919,14.012,16.15,14.012h103.993l-45.832-69.457
		C130.177,233.938,111.764,233.705,103.131,246.095z"/>
	<path style="fill:#A5DC69;" d="M256,247.229l-29.507-38.251c-9.316-12.076-27.921-10.784-35.477,2.465L131.378,316h108.288
		c9.021,0,16.333-7.313,16.333-16.333L256,247.229L256,247.229z"/>
</g>
<path style="fill:#FF5A5A;" d="M436.333,448H327.667c-6.443,0-11.667-5.223-11.667-11.667V327.667
	c0-6.443,5.223-11.667,11.667-11.667h108.667c6.443,0,11.667,5.223,11.667,11.667v108.667C448,442.777,442.777,448,436.333,448z"/>
<path style="fill:#231F20;" d="M21.004,82H496"/>
<path style="fill:#FFFFFF;" d="M363.556,204.127v-28.254c0-6.306,6.825-10.249,12.288-7.098l24.5,14.131
	c5.468,3.154,5.467,11.045-0.002,14.198l-24.5,14.123C370.379,214.375,363.556,210.432,363.556,204.127z M375.842,403.226
	l24.5-14.123c5.469-3.152,5.47-11.044,0.002-14.198l-24.5-14.131c-5.463-3.151-12.288,0.792-12.288,7.098v28.254
	C363.556,402.432,370.379,406.375,375.842,403.226z"/>
<path d="M462,0H50C22.43,0,0,22.43,0,50v412c0,27.57,22.43,50,50,50h412c27.57,0,50-22.43,50-50V50C512,22.43,489.57,0,462,0z
	 M50,20h412c16.542,0,30,13.458,30,30v22H21.004c-0.339,0-0.674,0.018-1.004,0.051V50C20,33.458,33.458,20,50,20z M462,492H50
	c-16.542,0-30-13.458-30-30V91.949C20.33,91.982,20.665,92,21.004,92H492v370C492,478.542,478.542,492,462,492z"/>
<path d="M222.065,56H448c5.522,0,10-4.478,10-10s-4.478-10-10-10H222.065c-5.522,0-10,4.478-10,10S216.543,56,222.065,56z"/>
<path d="M104,56c2.63,0,5.21-1.07,7.069-2.931C112.93,51.21,114,48.63,114,46s-1.07-5.21-2.931-7.07C109.21,37.069,106.63,36,104,36
	c-2.641,0-5.21,1.069-7.07,2.93S94,43.37,94,46s1.069,5.21,2.93,7.069C98.79,54.93,101.37,56,104,56z"/>
<path d="M64,56c2.63,0,5.21-1.07,7.069-2.931C72.93,51.21,74,48.63,74,46s-1.07-5.21-2.931-7.07C69.21,37.069,66.63,36,64,36
	s-5.21,1.069-7.07,2.93S54,43.37,54,46s1.069,5.21,2.93,7.069C58.79,54.93,61.37,56,64,56z"/>
<path d="M144,56c2.63,0,5.21-1.07,7.069-2.931C152.93,51.21,154,48.63,154,46s-1.07-5.21-2.931-7.07C149.21,37.069,146.63,36,144,36
	s-5.21,1.069-7.07,2.93S134,43.37,134,46s1.069,5.21,2.93,7.069C138.79,54.93,141.37,56,144,56z"/>
<path d="M239.667,114H199c-5.522,0-10,4.478-10,10s4.478,10,10,10h40.667c3.492,0,6.333,2.841,6.333,6.333v77.945l-16.969-22.205
	c-5.203-6.809-13.423-10.557-21.966-9.993c-8.551,0.552-16.215,5.312-20.499,12.733l-31.569,54.678l-16.282-24.738
	c-3.9-5.925-10.464-9.521-17.557-9.62c-7.04-0.107-13.753,3.314-17.816,9.13L74,270.26V140.333c0-3.492,2.841-6.333,6.333-6.333H112
	c5.522,0,10-4.478,10-10s-4.478-10-10-10H80.333C65.813,114,54,125.813,54,140.333v159.334C54,314.188,65.813,326,80.333,326
	h159.334C254.188,326,266,314.188,266,299.667V140.333C266,125.813,254.188,114,239.667,114z M75.236,303.411l44.5-63.692
	c0.103-0.146,0.41-0.587,1.12-0.587c0.009,0,0.017,0,0.024,0c0.728,0.011,1.028,0.468,1.128,0.618L165.613,306h-85.28
	C78.242,306,76.391,304.977,75.236,303.411z M239.667,306h-50.109L167.3,272.183l36.587-63.37c1.346-2.331,3.572-2.717,4.467-2.774
	c0.895-0.062,3.15,0.037,4.786,2.178l30.664,40.126c0.637,0.834,1.381,1.538,2.196,2.111v49.213
	C246,303.159,243.159,306,239.667,306z"/>
<path d="M160,134c2.63,0,5.21-1.07,7.069-2.931C168.93,129.21,170,126.63,170,124s-1.07-5.21-2.931-7.07
	C165.21,115.07,162.63,114,160,114s-5.21,1.069-7.07,2.93S150,121.37,150,124s1.069,5.21,2.93,7.069
	C154.79,132.93,157.37,134,160,134z"/>
<path d="M256,394H64c-5.522,0-10,4.478-10,10s4.478,10,10,10h192c5.522,0,10-4.478,10-10S261.522,394,256,394z"/>
<path d="M256,354H64c-5.522,0-10,4.478-10,10s4.478,10,10,10h192c5.522,0,10-4.478,10-10S261.522,354,256,354z"/>
<path d="M199,434c-2.63,0-5.21,1.069-7.07,2.93S189,441.37,189,444s1.069,5.21,2.93,7.069c1.86,1.86,4.44,2.931,7.07,2.931
	s5.21-1.07,7.069-2.931C207.93,449.21,209,446.63,209,444s-1.07-5.21-2.931-7.07C204.21,435.069,201.63,434,199,434z"/>
<path d="M160,434H64c-5.522,0-10,4.478-10,10s4.478,10,10,10h96c5.522,0,10-4.478,10-10S165.522,434,160,434z"/>
<path d="M436.333,114H327.667C315.72,114,306,123.72,306,135.667v108.666C306,256.28,315.72,266,327.667,266h108.666
	C448.28,266,458,256.28,458,244.333V135.667C458,123.72,448.28,114,436.333,114z M438,244.333c0,0.919-0.748,1.667-1.667,1.667
	H327.667c-0.919,0-1.667-0.748-1.667-1.667V135.667c0-0.919,0.748-1.667,1.667-1.667h108.666c0.919,0,1.667,0.748,1.667,1.667
	V244.333z"/>
<path d="M436.333,306H327.667C315.72,306,306,315.72,306,327.667v108.666C306,448.28,315.72,458,327.667,458h108.666
	C448.28,458,458,448.28,458,436.333V327.667C458,315.72,448.28,306,436.333,306z M438,436.333c0,0.919-0.748,1.667-1.667,1.667
	H327.667c-0.919,0-1.667-0.748-1.667-1.667V327.667c0-0.919,0.748-1.667,1.667-1.667h108.666c0.919,0,1.667,0.748,1.667,1.667
	V436.333z"/>
<path d="M405.34,366.244l-24.499-14.131c-5.696-3.287-12.497-3.284-18.191,0.005s-9.094,9.179-9.094,15.755v28.254
	c0,6.575,3.398,12.464,9.091,15.753c2.85,1.647,5.977,2.471,9.104,2.471c3.12,0,6.24-0.82,9.085-2.46h0.001l24.502-14.124
	c5.701-3.287,9.105-9.179,9.106-15.761C414.444,375.424,411.041,369.531,405.34,366.244z M373.556,393.002V371l19.079,11.004
	L373.556,393.002z"/>
<path d="M405.34,174.244l-24.499-14.131c-5.696-3.286-12.497-3.285-18.191,0.005c-5.694,3.289-9.094,9.179-9.094,15.755v28.254
	c0,6.575,3.398,12.464,9.091,15.753c2.85,1.647,5.976,2.471,9.103,2.471c3.12,0,6.241-0.82,9.087-2.46l24.502-14.124
	c5.701-3.287,9.105-9.179,9.106-15.761C414.444,183.424,411.041,177.531,405.34,174.244z M373.556,201.002V179l19.079,11.004
	L373.556,201.002z"/>
<g>
</g>
<g>
</g>
<g>
</g>
<g>
</g>
<g>
</g>
<g>
</g>
<g>
</g>
<g>
</g>
<g>
</g>
<g>
</g>
<g>
</g>
<g>
</g>
<g>
</g>
<g>
</g>
<g>
</g>
</svg>
