<?xml version="1.0" encoding="iso-8859-1"?>
<!-- Generator: Adobe Illustrator 19.0.0, SVG Export Plug-In . SVG Version: 6.00 Build 0)  -->
<svg version="1.1" id="Capa_1" xmlns="http://www.w3.org/2000/svg" xmlns:xlink="http://www.w3.org/1999/xlink" x="0px" y="0px"
	 viewBox="0 0 512 512" style="enable-background:new 0 0 512 512;" xml:space="preserve">
<path style="fill:#6E6B87;" d="M235.5,323.97v64.06c0,14.344-51.041,25.97-114,25.97s-114-11.626-114-25.97v-64.06H235.5z"/>
<path style="fill:#625F78;" d="M205.5,323.746v81.616c18.626-4.623,30-10.786,30-17.556v-64.06H205.5z"/>
<path style="fill:#6E6B87;" d="M504.5,323.97v64.06c0,14.344-51.041,25.97-114,25.97s-114-11.626-114-25.97v-64.06H504.5z"/>
<g>
	<circle style="fill:#EC5569;" cx="256" cy="27.5" r="20"/>
	<circle style="fill:#EC5569;" cx="256" cy="484.5" r="20"/>
</g>
<ellipse style="fill:#57566B;" cx="121.5" cy="323.97" rx="114" ry="25.97"/>
<path style="fill:#4D4C5E;" d="M121.5,297.775c-5.085,0-10.091,0.077-15,0.224c55.871,1.673,99,12.562,99,25.746
	s-43.129,24.073-99,25.746c4.909,0.147,9.915,0.224,15,0.224c62.96,0,114-11.627,114-25.97
	C235.5,309.403,184.46,297.775,121.5,297.775z"/>
<path style="fill:#6E6B87;" d="M235.5,223.97v64.06c0,14.344-51.041,25.97-114,25.97s-114-11.626-114-25.97v-64.06H235.5z"/>
<path style="fill:#625F78;" d="M205.5,223.97v81.616c18.626-4.623,30-10.786,30-17.556v-64.06H205.5z"/>
<ellipse style="fill:#57566B;" cx="121.5" cy="223.97" rx="114" ry="25.97"/>
<path style="fill:#4D4C5E;" d="M121.5,198c-5.085,0-10.091,0.077-15,0.224c55.871,1.673,99,12.562,99,25.746
	s-43.129,24.073-99,25.746c4.909,0.147,9.915,0.224,15,0.224c62.96,0,114-11.627,114-25.97S184.46,198,121.5,198z"/>
<path style="fill:#6E6B87;" d="M235.5,123.97v64.06c0,14.344-51.041,25.97-114,25.97s-114-11.626-114-25.97v-64.06H235.5z"/>
<path style="fill:#625F78;" d="M205.5,123.97v81.616c18.626-4.623,30-10.786,30-17.556v-64.06H205.5z"/>
<ellipse style="fill:#57566B;" cx="121.5" cy="123.97" rx="114" ry="25.97"/>
<path style="fill:#4D4C5E;" d="M121.5,98c-5.085,0-10.091,0.077-15,0.224c55.871,1.673,99,12.562,99,25.746
	s-43.129,24.073-99,25.746c4.909,0.147,9.915,0.224,15,0.224c62.96,0,114-11.627,114-25.97S184.46,98,121.5,98z"/>
<ellipse style="fill:#57566B;" cx="390.5" cy="323.97" rx="114" ry="25.97"/>
<path style="fill:#4D4C5E;" d="M390.5,298c-5.085,0-10.091,0.077-15,0.224c55.871,1.673,99,12.562,99,25.746
	s-43.129,24.073-99,25.746c4.909,0.147,9.915,0.224,15,0.224c62.96,0,114-11.627,114-25.97S453.46,298,390.5,298z"/>
<path style="fill:#6E6B87;" d="M504.5,223.97v64.06c0,14.344-51.041,25.97-114,25.97s-114-11.626-114-25.97v-64.06H504.5z"/>
<ellipse style="fill:#57566B;" cx="390.5" cy="223.97" rx="114" ry="25.97"/>
<path style="fill:#4D4C5E;" d="M390.5,198c-5.085,0-10.091,0.077-15,0.224c55.871,1.673,99,12.562,99,25.746
	s-43.129,24.073-99,25.746c4.909,0.147,9.915,0.224,15,0.224c62.96,0,114-11.627,114-25.97S453.46,198,390.5,198z"/>
<path style="fill:#6E6B87;" d="M504.5,123.97v64.06c0,14.344-51.041,25.97-114,25.97s-114-11.626-114-25.97v-64.06H504.5z"/>
<ellipse style="fill:#57566B;" cx="390.5" cy="123.97" rx="114" ry="25.97"/>
<path style="fill:#4D4C5E;" d="M390.5,98c-5.085,0-10.091,0.077-15,0.224c55.871,1.673,99,12.562,99,25.746
	s-43.129,24.073-99,25.746c4.909,0.147,9.915,0.224,15,0.224c62.96,0,114-11.627,114-25.97S453.46,98,390.5,98z"/>
<path d="M512,188.03v-64.06c0-11.265-12.83-19.664-39.224-25.676c-18.167-4.138-41.19-6.741-66.057-7.533V27.5
	c0-4.142-3.357-7.5-7.5-7.5H282.452C279.178,8.472,268.563,0,256,0s-23.178,8.472-26.452,20H119.69c-4.143,0-7.5,3.358-7.5,7.5
	v63.091c-27.498,0.497-53.129,3.183-72.967,7.702C12.83,104.307,0,112.706,0,123.97v64.06c0,7.085,5.081,13.036,15.417,17.973
	C5.083,210.938,0,216.884,0,223.97v64.06c0,7.085,5.081,13.036,15.417,17.973C5.083,310.938,0,316.884,0,323.97v64.06
	c0,11.264,12.83,19.662,39.224,25.675c20.273,4.619,46.595,7.324,74.776,7.734V484.5c0,4.142,3.357,7.5,7.5,7.5h108.048
	c3.274,11.528,13.889,20,26.452,20s23.178-8.472,26.452-20H399.22c4.143,0,7.5-3.358,7.5-7.5v-63.261
	c24.866-0.792,47.889-3.395,66.057-7.534C499.17,407.692,512,399.293,512,388.03v-64.06c0-7.087-5.083-13.033-15.417-17.967
	C506.919,301.066,512,295.115,512,288.03v-64.06c0-7.087-5.083-13.033-15.417-17.967C506.919,201.066,512,195.115,512,188.03z
	 M465.831,112.132c23.791,4.951,29.717,10.347,30.946,11.838c-1.229,1.491-7.155,6.887-30.946,11.838
	c-20.555,4.277-47.308,6.632-75.331,6.632s-54.776-2.355-75.331-6.632c-23.791-4.951-29.717-10.347-30.946-11.838
	c1.229-1.491,7.155-6.887,30.946-11.838c20.555-4.277,47.308-6.632,75.331-6.632c0.408,0,0.813,0.005,1.22,0.006v18.464
	c0,4.142,3.357,7.5,7.5,7.5s7.5-3.358,7.5-7.5v-18.202C428.725,106.495,449.287,108.69,465.831,112.132z M256,15
	c6.893,0,12.5,5.607,12.5,12.5S262.893,40,256,40s-12.5-5.607-12.5-12.5S249.107,15,256,15z M15,141.743
	c6.149,2.995,14.208,5.622,24.224,7.903c22.063,5.026,51.282,7.794,82.276,7.794c12.674,0,25.14-0.464,37.052-1.38
	c4.13-0.317,7.221-3.923,6.902-8.053c-0.316-4.129-3.903-7.219-8.053-6.903c-11.53,0.886-23.609,1.336-35.901,1.336
	c-28.023,0-54.776-2.355-75.331-6.632c-23.791-4.951-29.717-10.347-30.946-11.838c1.229-1.491,7.155-6.887,30.946-11.838
	c18.264-3.8,41.426-6.079,66.021-6.541v18.378c0,4.142,3.357,7.5,7.5,7.5s7.5-3.358,7.5-7.5v-18.436
	c25.938,0.296,50.482,2.611,69.641,6.598c23.959,4.985,29.799,10.423,30.972,11.869c-1.846,2.463-11.95,8.903-41.037,13.668
	c-4.088,0.669-6.859,4.526-6.189,8.614c0.67,4.087,4.525,6.858,8.613,6.189c17.008-2.786,29.909-6.321,38.811-10.659v45.919
	c-0.52,0.788-4.671,5.938-25.966,10.978c-0.092,0.022-0.185,0.041-0.276,0.066c-1.553,0.365-3.19,0.729-4.929,1.091
	c-20.556,4.277-47.309,6.633-75.329,6.633s-54.773-2.355-75.329-6.633c-1.737-0.361-3.372-0.725-4.923-1.09
	c-0.1-0.028-0.202-0.049-0.303-0.073C19.668,193.667,15.52,188.52,15,187.732V141.743z M39.254,213.712
	c22.06,5.023,51.267,7.788,82.246,7.788s60.186-2.766,82.246-7.788c18.09,4.486,22.935,8.927,24.031,10.258
	c-1.229,1.49-7.155,6.887-30.948,11.838c-20.557,4.277-47.309,6.633-75.329,6.633s-54.772-2.355-75.329-6.633
	c-23.793-4.951-29.719-10.348-30.948-11.838C16.319,222.639,21.164,218.198,39.254,213.712z M39.254,313.712
	c22.06,5.023,51.267,7.788,82.246,7.788s60.186-2.766,82.246-7.788c18.09,4.486,22.935,8.927,24.031,10.258
	c-1.229,1.49-7.155,6.887-30.948,11.838c-20.557,4.277-47.309,6.633-75.329,6.633s-54.772-2.355-75.329-6.633
	c-23.793-4.951-29.719-10.348-30.948-11.838C16.319,322.639,21.164,318.198,39.254,313.712z M15,387.732v-45.99
	c6.149,2.995,14.208,5.621,24.224,7.903c22.064,5.027,51.283,7.795,82.276,7.795s60.212-2.768,82.276-7.795
	c10.016-2.282,18.074-4.908,24.224-7.903v45.99c-0.56,0.849-5.316,6.755-31.171,12.135c-20.556,4.277-47.309,6.633-75.329,6.633
	s-54.773-2.355-75.329-6.633C20.316,394.487,15.56,388.581,15,387.732z M256,497c-6.893,0-12.5-5.607-12.5-12.5S249.107,472,256,472
	s12.5,5.607,12.5,12.5S262.893,497,256,497z M465.829,399.867c-20.556,4.277-47.309,6.633-75.329,6.633
	c-7.595,0-15.179-0.173-22.541-0.516c-4.157-0.203-7.647,3.006-7.841,7.144c-0.192,4.138,3.006,7.648,7.144,7.84
	c7.595,0.353,15.413,0.532,23.238,0.532c0.408,0,0.812-0.006,1.22-0.007V477H282.452c-3.274-11.528-13.889-20-26.452-20
	s-23.178,8.472-26.452,20H129v-55.561c28.182-0.41,54.503-3.115,74.776-7.734C230.17,407.692,243,399.293,243,388.03v-64.06
	c0-7.087-5.083-13.033-15.417-17.967C237.919,301.066,243,295.115,243,288.03c0-4.142-3.357-7.5-7.5-7.5
	c-4.039,0-7.333,3.193-7.494,7.193c-0.491,0.755-4.582,5.917-25.912,10.973c-0.117,0.027-0.235,0.052-0.351,0.084
	c-1.549,0.364-3.181,0.727-4.914,1.088c-20.556,4.277-47.309,6.633-75.329,6.633s-54.773-2.355-75.329-6.633
	c-1.731-0.36-3.361-0.723-4.909-1.086c-0.124-0.035-0.25-0.062-0.376-0.09c-21.225-5.035-25.367-10.173-25.886-10.96v-45.99
	c6.149,2.995,14.208,5.621,24.224,7.903c22.064,5.027,51.283,7.795,82.276,7.795s60.212-2.768,82.276-7.795
	c10.016-2.282,18.074-4.908,24.224-7.903V256c0,4.142,3.357,7.5,7.5,7.5s7.5-3.358,7.5-7.5v-32.03
	c0-7.087-5.083-13.033-15.417-17.967C237.919,201.066,243,195.115,243,188.03v-64.06c0-11.265-12.83-19.664-39.224-25.676
	c-20.707-4.717-47.719-7.445-76.586-7.762V35h102.358c3.274,11.528,13.889,20,26.452,20s23.178-8.472,26.452-20H391.72v55.507
	c-0.407-0.001-0.812-0.007-1.22-0.007c-30.994,0-60.214,2.768-82.276,7.794C281.83,104.307,269,112.706,269,123.97v64.06
	c0,7.085,5.081,13.036,15.417,17.973C274.083,210.938,269,216.884,269,223.97v64.06c0,7.085,5.081,13.036,15.417,17.973
	C274.083,310.938,269,316.884,269,323.97v64.06c0,14.839,22.784,25.087,67.721,30.458c0.302,0.036,0.602,0.054,0.899,0.054
	c3.744,0,6.981-2.8,7.438-6.611c0.491-4.113-2.444-7.846-6.558-8.337c-37.54-4.487-52.782-12.503-54.5-15.833v-46.02
	c6.149,2.995,14.208,5.621,24.224,7.903c22.064,5.027,51.283,7.795,82.276,7.795s60.212-2.768,82.276-7.795
	c10.016-2.282,18.074-4.908,24.224-7.903v45.991C496.44,388.581,491.684,394.487,465.829,399.867z M465.829,335.807
	c-20.557,4.277-47.309,6.633-75.329,6.633s-54.772-2.355-75.329-6.633c-23.793-4.951-29.719-10.348-30.948-11.838
	c1.096-1.331,5.941-5.772,24.031-10.258c22.06,5.023,51.267,7.788,82.246,7.788s60.186-2.766,82.246-7.788
	c18.09,4.486,22.935,8.927,24.031,10.258C495.548,325.459,489.622,330.856,465.829,335.807z M471.102,298.694
	c-0.121,0.028-0.242,0.053-0.361,0.087c-1.548,0.364-3.179,0.727-4.912,1.087c-20.556,4.277-47.309,6.633-75.329,6.633
	s-54.773-2.355-75.329-6.633c-1.73-0.36-3.359-0.722-4.905-1.086c-0.128-0.036-0.259-0.064-0.389-0.093
	c-21.216-5.033-25.357-10.169-25.876-10.956v-45.99c6.149,2.995,14.208,5.621,24.224,7.903c22.064,5.027,51.283,7.795,82.276,7.795
	s60.212-2.768,82.276-7.795c10.016-2.282,18.074-4.908,24.224-7.903v45.99C496.481,288.519,492.337,293.659,471.102,298.694z
	 M465.829,235.807c-20.557,4.277-47.309,6.633-75.329,6.633s-54.772-2.355-75.329-6.633c-23.793-4.951-29.719-10.348-30.948-11.838
	c1.096-1.331,5.941-5.772,24.031-10.258c22.06,5.023,51.267,7.788,82.246,7.788s60.186-2.766,82.246-7.788
	c18.09,4.486,22.935,8.927,24.031,10.258C495.548,225.459,489.622,230.856,465.829,235.807z M471.045,198.707
	c-0.097,0.023-0.195,0.043-0.291,0.07c-1.552,0.365-3.188,0.729-4.925,1.09c-20.556,4.277-47.309,6.633-75.329,6.633
	s-54.773-2.355-75.329-6.633c-1.736-0.361-3.369-0.725-4.92-1.089c-0.104-0.029-0.21-0.051-0.316-0.076
	c-21.268-5.037-25.416-10.183-25.935-10.971v-45.989c6.149,2.995,14.208,5.622,24.224,7.903c22.063,5.026,51.282,7.794,82.276,7.794
	s60.214-2.768,82.276-7.794c10.016-2.282,18.074-4.908,24.224-7.903v45.989C496.48,188.52,492.33,193.669,471.045,198.707z"/>
<circle cx="48.13" cy="186.05" r="7.5"/>
<circle cx="48.2" cy="164.55" r="7.5"/>
<circle cx="48.13" cy="286.05" r="7.5"/>
<circle cx="48.2" cy="264.55" r="7.5"/>
<circle cx="48.13" cy="386.05" r="7.5"/>
<circle cx="48.2" cy="364.55" r="7.5"/>
<circle cx="320.13" cy="186.05" r="7.5"/>
<circle cx="320.2" cy="164.55" r="7.5"/>
<circle cx="320.13" cy="286.05" r="7.5"/>
<circle cx="320.2" cy="264.55" r="7.5"/>
<circle cx="320.13" cy="386.05" r="7.5"/>
<circle cx="320.2" cy="364.55" r="7.5"/>
<g>
</g>
<g>
</g>
<g>
</g>
<g>
</g>
<g>
</g>
<g>
</g>
<g>
</g>
<g>
</g>
<g>
</g>
<g>
</g>
<g>
</g>
<g>
</g>
<g>
</g>
<g>
</g>
<g>
</g>
</svg>
