<?xml version="1.0" encoding="iso-8859-1"?>
<!-- Generator: Adobe Illustrator 19.0.0, SVG Export Plug-In . SVG Version: 6.00 Build 0)  -->
<svg version="1.1" id="Capa_1" xmlns="http://www.w3.org/2000/svg" xmlns:xlink="http://www.w3.org/1999/xlink" x="0px" y="0px"
	 viewBox="0 0 512 512" style="enable-background:new 0 0 512 512;" xml:space="preserve">
<path style="fill:#EC5569;" d="M370.995,115.766c-2.748,80.762-47.457,150.99-113.072,189.682c-1.248,0.736-2.808,0.736-4.056,0
	c-64.472-38.025-108.722-106.442-112.856-185.444c-0.163-3.121,1.468-6.111,4.19-7.667c32.699-18.685,70.482-29.653,110.693-30.295
	C257.157,82,258.463,82,259.769,82c38.522,0,74.823,9.423,106.744,26.086C369.349,109.567,371.104,112.579,370.995,115.766z"/>
<path style="fill:#E63950;" d="M366.513,108.086c-8.29-4.328-16.881-8.155-25.724-11.467c0.024,0.21,0.06,0.417,0.068,0.631
	c2.844,80.759-36.9,153.91-99.682,197.048c-1.182,0.813-2.717,0.924-4.005,0.298c5.398,3.847,10.966,7.472,16.697,10.852
	c1.248,0.736,2.808,0.736,4.056,0c65.616-38.692,110.324-108.919,113.072-189.682C371.104,112.58,369.349,109.567,366.513,108.086z"
	/>
<path style="fill:#FAD87C;" d="M299.169,230.576H212.83c-1.563,0-2.831-1.267-2.831-2.831v-60.862c0-1.563,1.267-2.831,2.831-2.831
	h86.339c1.563,0,2.831,1.267,2.831,2.831v60.862C302,229.309,300.733,230.576,299.169,230.576z"/>
<g>
	<circle style="fill:#EC5569;" cx="31.5" cy="406" r="24"/>
	<circle style="fill:#EC5569;" cx="480.5" cy="406" r="24"/>
</g>
<circle style="fill:#6E6B87;" cx="256" cy="192.4" r="12"/>
<path d="M194.322,99.229c19.946-6.093,40.702-9.353,61.692-9.688c0.043-0.001,0.086-0.002,0.13-0.003
	c1.181-0.04,2.399-0.039,3.625-0.038c35.935,0,71.646,8.726,103.273,25.234c0.275,0.144,0.468,0.471,0.458,0.777
	c-1.813,53.286-22.91,104.188-59.404,143.33c-2.825,3.029-2.659,7.775,0.371,10.6c1.446,1.348,3.281,2.015,5.113,2.015
	c2.007,0,4.01-0.802,5.487-2.386c38.964-41.789,61.488-96.143,63.425-153.049c0.206-6.054-3.133-11.778-8.507-14.584
	C336.223,83.814,298.111,74.5,259.769,74.5c-1.324,0-2.691,0-4.056,0.044c-22.375,0.363-44.503,3.842-65.772,10.339
	c-3.961,1.21-6.192,5.402-4.982,9.364C186.169,98.209,190.362,100.438,194.322,99.229z"/>
<path d="M63.833,342.5H31.5c-4.142,0-7.5,3.357-7.5,7.5v25.409C10.241,378.784,0,391.215,0,406c0,17.369,14.131,31.5,31.5,31.5
	S63,423.369,63,406c0-14.785-10.241-27.216-24-30.591V357.5h24.833c4.142,0,7.5-3.357,7.5-7.5S67.976,342.5,63.833,342.5z M48,406
	c0,9.098-7.402,16.5-16.5,16.5S15,415.098,15,406s7.402-16.5,16.5-16.5S48,396.902,48,406z"/>
<path d="M488,375.409V350c0-4.143-3.358-7.5-7.5-7.5h-217v-31.658c10.148-6.104,19.914-13.005,29.043-20.554
	c3.192-2.64,3.641-7.367,1.001-10.56c-2.64-3.191-7.366-3.641-10.559-1.001c-8.52,7.044-17.625,13.496-27.091,19.198
	C192.447,259.72,152.352,193.219,148.5,119.611c-0.016-0.293,0.162-0.614,0.422-0.763c5.79-3.31,11.807-6.396,17.881-9.176
	c3.767-1.724,5.423-6.174,3.7-9.94c-1.724-3.768-6.175-5.426-9.94-3.7c-6.483,2.966-12.904,6.261-19.083,9.793
	c-5.145,2.939-8.269,8.659-7.959,14.57c4.119,78.726,47.06,149.828,114.979,190.579V342.5H96.167c-4.142,0-7.5,3.357-7.5,7.5
	s3.358,7.5,7.5,7.5H473v17.909c-13.759,3.375-24,15.806-24,30.591c0,17.369,14.131,31.5,31.5,31.5S512,423.369,512,406
	C512,391.215,501.759,378.784,488,375.409z M480.5,422.5c-9.098,0-16.5-7.402-16.5-16.5s7.402-16.5,16.5-16.5S497,396.902,497,406
	S489.598,422.5,480.5,422.5z"/>
<path d="M256,104.184c-22.476,0-40.762,18.285-40.762,40.762v11.607h-2.408c-5.696,0-10.331,4.635-10.331,10.331v60.861
	c0,5.696,4.634,10.331,10.331,10.331h86.339c5.696,0,10.331-4.635,10.331-10.331v-60.861c0-5.696-4.634-10.331-10.331-10.331h-2.408
	v-11.607C296.762,122.469,278.476,104.184,256,104.184z M230.238,144.945c0-14.205,11.557-25.762,25.762-25.762
	s25.762,11.557,25.762,25.762v11.607h-51.523L230.238,144.945L230.238,144.945z M294.5,223.076h-77v-51.523h77V223.076z"/>
<path d="M256,172.901c-10.752,0-19.5,8.748-19.5,19.5c0,8.095,4.96,15.051,12,17.996v3.83c0,4.143,3.358,7.5,7.5,7.5
	s7.5-3.357,7.5-7.5v-3.83c7.04-2.945,12-9.9,12-17.996C275.5,181.649,266.752,172.901,256,172.901z M256,187.901
	c2.481,0,4.5,2.019,4.5,4.5s-2.019,4.5-4.5,4.5s-4.5-2.019-4.5-4.5S253.519,187.901,256,187.901z"/>
<g>
</g>
<g>
</g>
<g>
</g>
<g>
</g>
<g>
</g>
<g>
</g>
<g>
</g>
<g>
</g>
<g>
</g>
<g>
</g>
<g>
</g>
<g>
</g>
<g>
</g>
<g>
</g>
<g>
</g>
</svg>
