<?xml version="1.0" encoding="iso-8859-1"?>
<!-- Generator: Adobe Illustrator 19.0.0, SVG Export Plug-In . SVG Version: 6.00 Build 0)  -->
<svg version="1.1" id="Capa_1" xmlns="http://www.w3.org/2000/svg" xmlns:xlink="http://www.w3.org/1999/xlink" x="0px" y="0px"
	 viewBox="0 0 512 512" style="enable-background:new 0 0 512 512;" xml:space="preserve">
<path style="fill:#444B75;" d="M502,422v60c0,11.05-8.95,20-20,20H262c-11.05,0-20-8.95-20-20v-60H502z"/>
<rect x="242" y="70" style="fill:#FFFFFF;" width="260" height="352"/>
<path style="fill:#444B75;" d="M502,30v40H242V30c0-11.05,8.95-20,20-20h220C493.05,10,502,18.95,502,30z"/>
<path style="fill:#ED589D;" d="M370,236v120c0,11.05-8.95,20-20,20c-10.464,0-297.762,0-320,0c-11.05,0-20-8.95-20-20V236h0.5H370z"
	/>
<polygon style="fill:#444B75;" points="370,176 370,236 10.5,236 10,236 10,176 "/>
<path style="fill:#ED589D;" d="M370,136v40H10v-40c0-11.05,8.95-20,20-20c22.228,0,308.216,0,320,0C361.05,116,370,124.95,370,136z"
	/>
<path d="M209.5,326c-5.52,0-10,4.48-10,10s4.48,10,10,10s10-4.48,10-10S215.02,326,209.5,326z"/>
<path d="M482,0H262c-16.542,0-30,13.458-30,30v76H30c-16.542,0-30,13.458-30,30v220c0,16.542,13.458,30,30,30h202v96
	c0,16.542,13.458,30,30,30h220c16.542,0,30-13.458,30-30V30C512,13.458,498.542,0,482,0z M262,20h220c5.514,0,10,4.486,10,10v30H252
	V30C252,24.486,256.486,20,262,20z M30,126h320c5.514,0,10,4.486,10,10v30H20v-30C20,130.486,24.486,126,30,126z M20,186h340v40H20
	V186z M20,356V246h340v110c0,5.514-4.486,10-10,10H30C24.486,366,20,361.514,20,356z M350,386c16.542,0,30-13.458,30-30V136
	c0-16.542-13.458-30-30-30h-98V80h240v332H252v-26H350z M482,492H262c-5.514,0-10-4.486-10-10v-50h240v50
	C492,487.514,487.514,492,482,492z"/>
<path d="M382,452h-20c-5.522,0-10,4.478-10,10s4.478,10,10,10h20c5.522,0,10-4.478,10-10S387.522,452,382,452z"/>
<path d="M330,286h-40c-5.522,0-10,4.478-10,10s4.478,10,10,10h40c5.522,0,10-4.478,10-10S335.522,286,330,286z"/>
<path d="M210,306h40c5.522,0,10-4.478,10-10s-4.478-10-10-10h-40c-5.522,0-10,4.478-10,10S204.478,306,210,306z"/>
<path d="M170,286h-40c-5.522,0-10,4.478-10,10s4.478,10,10,10h40c5.522,0,10-4.478,10-10S175.522,286,170,286z"/>
<path d="M90,286H50c-5.522,0-10,4.478-10,10s4.478,10,10,10h40c5.522,0,10-4.478,10-10S95.522,286,90,286z"/>
<path d="M330,326h-80c-5.522,0-10,4.478-10,10s4.478,10,10,10h80c5.522,0,10-4.478,10-10S335.522,326,330,326z"/>
<g>
</g>
<g>
</g>
<g>
</g>
<g>
</g>
<g>
</g>
<g>
</g>
<g>
</g>
<g>
</g>
<g>
</g>
<g>
</g>
<g>
</g>
<g>
</g>
<g>
</g>
<g>
</g>
<g>
</g>
</svg>
