<?xml version="1.0" encoding="iso-8859-1"?>
<!-- Generator: Adobe Illustrator 19.0.0, SVG Export Plug-In . SVG Version: 6.00 Build 0)  -->
<svg xmlns="http://www.w3.org/2000/svg" xmlns:xlink="http://www.w3.org/1999/xlink" version="1.1" id="Layer_1" x="0px" y="0px" viewBox="0 0 511.994 511.994" style="enable-background:new 0 0 511.994 511.994;" xml:space="preserve" width="512" height="512">
<g id="XMLID_1988_">
	<g id="XMLID_870_">
		<g id="XMLID_1011_">
			<rect id="XMLID_2323_" x="229.944" y="33.037" style="fill:#FF6A66;" width="52.105" height="85.704"/>
			<g id="XMLID_1016_">
				<g id="XMLID_1018_">
					<g id="XMLID_1019_">
						<path id="XMLID_1020_" style="fill:#88A5A0;" d="M342.032,504.5h-172.07c-6.944,0-9.936-8.83-4.406-13.037        c13.49-10.244,22.32-23.045,28.086-35.32c10.535-22.375,10.897-42.954,10.897-42.954h102.915c0,0,0.363,20.579,10.897,42.954        c5.766,12.275,14.596,25.076,28.086,35.32C351.968,495.67,348.976,504.5,342.032,504.5z"/>
						<path id="XMLID_1021_" style="fill:#718987;" d="M314.706,447.454c-6.973-18.74-7.251-34.265-7.251-34.265H204.539        c0,0-0.278,15.525-7.251,34.265H314.706z"/>
						<path id="XMLID_1025_" style="fill:#14C4BB;" d="M486.449,123.644v249.493H25.537V123.644        c0-18.875,15.282-34.158,34.137-34.158h392.639C471.166,89.486,486.449,104.768,486.449,123.644z"/>
						<rect id="XMLID_1028_" x="25.535" y="348.442" style="fill:#00A094;" width="460.918" height="24.692"/>
						<polygon id="XMLID_1029_" style="fill:#E2FFFE;" points="421.685,89.486 138.034,373.137 76.758,373.137 101.456,348.438         231.551,218.354 102.682,89.486 190.93,89.486 273.344,171.9 355.758,89.486       "/>
						<polygon id="XMLID_1030_" style="fill:#B0D1CF;" points="162.733,348.438 138.034,373.137 76.758,373.137 101.456,348.438               "/>
						<path id="XMLID_2320_" style="fill:#88A5A0;" d="M471.35,430.759H40.645c-8.345,0-15.11-6.765-15.11-15.11v-48.748h460.924        v48.748C486.459,423.994,479.694,430.759,471.35,430.759z"/>
					</g>
				</g>
				<g id="XMLID_1034_">
					<circle id="XMLID_2318_" style="fill:#14C4BB;" cx="255.997" cy="398.83" r="10.362"/>
				</g>
			</g>
			<path id="XMLID_2316_" style="fill:#FFA28D;" d="M310.348,53.851H201.646c-5.142,0-9.31-4.168-9.31-9.31V26.107     c0-5.142,4.168-9.31,9.31-9.31h108.702c5.142,0,9.31,4.168,9.31,9.31v18.434C319.658,49.683,315.49,53.851,310.348,53.851z"/>
		</g>
		<g id="XMLID_1035_">
			<path id="XMLID_1040_" style="fill:#FF6A66;" d="M154.154,216.64c0,18.84-26.009,49.313-38.365,62.729     c-3.436,3.73-9.314,3.73-12.75,0c-12.357-13.415-38.366-43.889-38.366-62.729c0-24.709,20.031-44.74,44.74-44.74     S154.154,191.931,154.154,216.64z"/>
		</g>
	</g>
	<g id="XMLID_1060_">
		<path id="XMLID_1096_" d="M483.169,50.853h-61.317c-4.143,0-7.5,3.357-7.5,7.5s3.357,7.5,7.5,7.5h61.317    c4.143,0,7.5-3.357,7.5-7.5S487.312,50.853,483.169,50.853z"/>
		<path id="XMLID_1095_" d="M28.825,15h26.445c4.143,0,7.5-3.357,7.5-7.5S59.413,0,55.271,0H28.825c-4.143,0-7.5,3.357-7.5,7.5    S24.683,15,28.825,15z"/>
		<path id="XMLID_1076_" d="M486.459,215.191c4.143,0,7.5-3.357,7.5-7.5v-84.059c0-22.965-18.684-41.648-41.648-41.648H289.55    V61.352h20.798c9.27,0,16.811-7.541,16.811-16.811v-3.354h156.011c4.143,0,7.5-3.357,7.5-7.5s-3.357-7.5-7.5-7.5H327.158v-0.079    c0-9.27-7.541-16.811-16.811-16.811H201.646c-9.27,0-16.811,7.541-16.811,16.811v0.079H28.825c-4.143,0-7.5,3.357-7.5,7.5    s3.357,7.5,7.5,7.5h156.011v3.354c0,9.27,7.541,16.811,16.811,16.811h20.798v20.633H59.684c-22.965,0-41.648,18.684-41.648,41.648    v172.725c0,4.143,3.357,7.5,7.5,7.5s7.5-3.357,7.5-7.5V123.633c0-14.694,11.954-26.648,26.648-26.648h39.89l121.371,121.37    L79.888,359.4H33.035v-32.425c0-4.143-3.357-7.5-7.5-7.5s-7.5,3.357-7.5,7.5V366.9v6.229v42.519    c0,12.468,10.143,22.61,22.609,22.61h151.84c-4.585,15.189-13.625,33.703-31.457,47.236c-5.126,3.89-7.11,10.346-5.058,16.446    c2.055,6.106,7.546,10.053,13.988,10.053h172.078c6.442,0,11.934-3.946,13.988-10.053c2.053-6.101,0.068-12.557-5.058-16.447    c-17.791-13.5-26.851-31.94-31.463-47.235h52.185c4.143,0,7.5-3.357,7.5-7.5s-3.357-7.5-7.5-7.5H40.645    c-4.196,0-7.609-3.414-7.609-7.61V374.4h445.924v41.248c0,4.196-3.413,7.61-7.609,7.61h-69.044c-4.143,0-7.5,3.357-7.5,7.5    s3.357,7.5,7.5,7.5h69.044c12.467,0,22.609-10.143,22.609-22.61V373.13V366.9V238.309c0-4.143-3.357-7.5-7.5-7.5    s-7.5,3.357-7.5,7.5v23.281L369.574,152.204l39.94-39.94l68.351,68.351c0.341,0.341,0.709,0.638,1.094,0.9v26.177    C478.959,211.834,482.316,215.191,486.459,215.191z M341.309,496.994l-170.623-0.002c22.306-17.2,32.62-40.709,37.387-58.733    h95.848C308.726,456.441,319.059,479.822,341.309,496.994z M337.652,96.984l-64.309,64.309l-64.308-64.309H337.652z     M199.836,44.541V26.107c0-0.998,0.813-1.811,1.811-1.811h108.701c0.998,0,1.811,0.813,1.811,1.811v18.434    c0,0.998-0.813,1.811-1.811,1.811H201.646C200.648,46.352,199.836,45.539,199.836,44.541z M237.444,61.352h37.105v20.633h-37.105    V61.352z M236.854,223.658c1.407-1.407,2.197-3.314,2.197-5.304s-0.79-3.896-2.196-5.304L120.788,96.984h67.033l80.219,80.219    c1.465,1.464,3.384,2.196,5.304,2.196c1.919,0,3.839-0.732,5.304-2.196l80.22-80.219h44.712L141.163,359.4h-40.062    L236.854,223.658z M354.567,259.507c0.003,0.003,0.006,0.007,0.009,0.01s0.007,0.006,0.01,0.009l45.235,45.234l-39.941,39.94    L268.479,253.3l39.94-39.94L354.567,259.507z M374.579,359.4l-4.092-4.092l39.941-39.94L454.46,359.4H374.579z M273.483,359.4    l-55.553-55.553l39.94-39.94l95.493,95.493H273.483z M207.323,314.455l44.945,44.945h-89.891L207.323,314.455z M478.959,282.55    V359.4h-3.409c-0.215-0.289-0.446-0.57-0.708-0.833L370.488,254.213l39.94-39.94l67.259,67.259    C478.08,281.926,478.509,282.262,478.959,282.55z M399.821,203.666l-39.94,39.94l-40.854-40.854l39.94-39.94L399.821,203.666z     M420.122,101.656l4.672-4.672h27.517c14.694,0,26.648,11.954,26.648,26.648v36.86L420.122,101.656z"/>
		<path id="XMLID_1070_" d="M238.135,398.83c0,9.849,8.013,17.861,17.862,17.861s17.862-8.013,17.862-17.861    c0-9.85-8.013-17.862-17.862-17.862S238.135,388.98,238.135,398.83z M258.859,398.83c0,1.578-1.284,2.861-2.862,2.861    s-2.862-1.283-2.862-2.861s1.284-2.862,2.862-2.862S258.859,397.252,258.859,398.83z"/>
		<path id="XMLID_1062_" d="M109.414,289.666c4.503,0,8.837-1.9,11.892-5.216c18.407-19.985,40.349-47.973,40.349-67.81    c0-28.806-23.435-52.241-52.24-52.241s-52.24,23.436-52.24,52.241c0,19.84,21.941,47.826,40.349,67.81    c3.054,3.314,7.387,5.216,11.89,5.216C109.413,289.666,109.413,289.666,109.414,289.666z M72.174,216.641    c0-20.535,16.706-37.241,37.24-37.241s37.24,16.706,37.24,37.241c0,11.192-13.94,33.282-36.381,57.646    c-0.289,0.313-0.627,0.379-0.859,0.379c-0.233,0-0.57-0.065-0.858-0.378C86.114,249.925,72.174,227.835,72.174,216.641z"/>
		<path id="XMLID_1061_" d="M116.914,212.459v-1.566c0-4.143-3.357-7.5-7.5-7.5s-7.5,3.357-7.5,7.5v1.566c0,4.143,3.357,7.5,7.5,7.5    S116.914,216.602,116.914,212.459z"/>
	</g>
</g>















</svg>
