<?xml version="1.0" encoding="iso-8859-1"?>
<!-- Generator: Adobe Illustrator 19.0.0, SVG Export Plug-In . SVG Version: 6.00 Build 0)  -->
<svg xmlns="http://www.w3.org/2000/svg" xmlns:xlink="http://www.w3.org/1999/xlink" version="1.1" id="Layer_1" x="0px" y="0px" viewBox="0 0 511.995 511.995" style="enable-background:new 0 0 511.995 511.995;" xml:space="preserve" width="512" height="512">
<g id="XMLID_2279_">
	<g id="XMLID_3235_">
		<g id="XMLID_1120_">
			<path id="XMLID_1121_" style="fill:#E2FFFE;" d="M504.498,62.311v398.14c0,5.01-4.058,9.068-9.068,9.068H16.565     c-5.01,0-9.068-4.058-9.068-9.068V62.3c0-10.949,8.886-19.836,19.836-19.836h457.329     C495.611,42.464,504.498,51.35,504.498,62.311z"/>
			<path id="XMLID_1122_" style="fill:#B0D1CF;" d="M504.498,346.583V460.45c0,5.008-4.06,9.068-9.068,9.068H16.565     c-5.008,0-9.068-4.06-9.068-9.068V313.837l159.791-135.596c4.827-4.096,11.854-4.276,16.885-0.434l156.732,119.709l31.533-33.782     c4.67-5.003,12.349-5.707,17.851-1.637L504.498,346.583z"/>
			<path id="XMLID_1125_" style="fill:#14C4BB;" d="M504.498,442.428v18.022c0,5.01-4.058,9.068-9.068,9.068H16.565     c-5.01,0-9.068-4.058-9.068-9.068V334.648l53.091-45.055l84.704-71.873l30.785-26.126l153.958,117.585L504.498,442.428z"/>
			<path id="XMLID_1128_" style="fill:#00A094;" d="M145.292,217.72v135.053c0,11.729-13.305,18.508-22.793,11.612l-19.553-14.209     l-19.566,14.215c-9.489,6.894-22.792,0.115-22.792-11.613v-63.185L145.292,217.72z"/>
			<path id="XMLID_1131_" style="fill:#00A094;" d="M504.498,442.428v18.022c0,5.01-4.058,9.068-9.068,9.068H180.407l149.628-160.34     L504.498,442.428z"/>
			<path id="XMLID_1133_" style="fill:#72F2EB;" d="M504.498,366.328v94.123c0,5.01-4.058,9.068-9.068,9.068H202.113     l180.458-193.391L504.498,366.328z"/>
			<path id="XMLID_1135_" style="fill:#B0D1CF;" d="M504.498,62.316v70.932h-497V62.316c0-10.96,8.886-19.847,19.836-19.847h457.329     C495.611,42.469,504.498,51.355,504.498,62.316z"/>
			<path id="XMLID_2579_" style="fill:#F9B767;" d="M504.495,117.382H7.5V62.31c0-10.956,8.882-19.838,19.838-19.838h457.318     c10.956,0,19.838,8.882,19.838,19.838V117.382z"/>
		</g>
		<polygon id="XMLID_1145_" style="fill:#FF433E;" points="129.428,349.802 102.944,330.556 76.46,349.802 76.46,276.127     129.428,231.179   "/>
	</g>
	<g id="XMLID_1274_">
		<path id="XMLID_1283_" d="M484.657,34.972H27.338C12.264,34.972,0,47.236,0,62.31v398.146c0,9.136,7.432,16.567,16.568,16.567    h89.121c4.142,0,7.5-3.357,7.5-7.5s-3.358-7.5-7.5-7.5H16.568c-0.865,0-1.568-0.703-1.568-1.567V338.118l53.96-45.79v57.474    c0,2.82,1.583,5.402,4.095,6.683c2.513,1.282,5.532,1.043,7.814-0.615l22.075-16.042l22.075,16.042    c1.306,0.949,2.854,1.433,4.41,1.433c1.162,0,2.329-0.27,3.404-0.817c2.513-1.28,4.095-3.862,4.095-6.683v-47.5    c0-4.143-3.358-7.5-7.5-7.5s-7.5,3.357-7.5,7.5v32.778l-14.575-10.592c-2.629-1.91-6.189-1.91-8.818,0L83.96,335.08v-55.481    l37.968-32.219v24.305c0,4.143,3.358,7.5,7.5,7.5s7.5-3.357,7.5-7.5v-37.034l39.397-33.432L331.57,319.79L198.848,462.023h-62.542    c-4.142,0-7.5,3.357-7.5,7.5s3.358,7.5,7.5,7.5h359.121c9.136,0,16.567-7.432,16.567-16.567V191.636c0-4.143-3.357-7.5-7.5-7.5    s-7.5,3.357-7.5,7.5v159.811l-109.963-81.349c-3.067-2.27-7.344-1.875-9.944,0.912l-35.234,37.76L180.629,185.633    c-2.802-2.141-6.716-2.039-9.405,0.241L15,318.445V124.882h481.995v36.136c0,4.143,3.357,7.5,7.5,7.5s7.5-3.357,7.5-7.5V62.31    C511.995,47.236,499.731,34.972,484.657,34.972z M383.49,286.136l113.505,83.97v90.349c0,0.864-0.703,1.567-1.567,1.567H219.365    L383.49,286.136z M15,109.882V62.31c0-6.803,5.535-12.338,12.338-12.338h457.318c6.803,0,12.338,5.535,12.338,12.338v47.572H15z"/>
		<path id="XMLID_1282_" d="M341.69,73.812H74.159c-4.142,0-7.5,3.357-7.5,7.5s3.358,7.5,7.5,7.5H341.69c4.143,0,7.5-3.357,7.5-7.5    S345.833,73.812,341.69,73.812z"/>
		<path id="XMLID_1281_" d="M377.96,71.776c-4.143,0-7.5,3.357-7.5,7.5v1.303c0,4.143,3.357,7.5,7.5,7.5s7.5-3.357,7.5-7.5v-1.303    C385.46,75.133,382.103,71.776,377.96,71.776z"/>
		<path id="XMLID_1280_" d="M407.898,71.776c-4.143,0-7.5,3.357-7.5,7.5v1.303c0,4.143,3.357,7.5,7.5,7.5s7.5-3.357,7.5-7.5v-1.303    C415.398,75.133,412.041,71.776,407.898,71.776z"/>
		<path id="XMLID_1279_" d="M437.836,71.776c-4.143,0-7.5,3.357-7.5,7.5v1.303c0,4.143,3.357,7.5,7.5,7.5s7.5-3.357,7.5-7.5v-1.303    C445.336,75.133,441.979,71.776,437.836,71.776z"/>
		<path id="XMLID_1278_" d="M336.757,194.747v1.265c0,4.143,3.357,7.5,7.5,7.5s7.5-3.357,7.5-7.5v-1.265c0-4.143-3.357-7.5-7.5-7.5    S336.757,190.605,336.757,194.747z"/>
		<path id="XMLID_1276_" d="M365.833,194.747v1.265c0,4.143,3.357,7.5,7.5,7.5s7.5-3.357,7.5-7.5v-1.265c0-4.143-3.357-7.5-7.5-7.5    S365.833,190.605,365.833,194.747z"/>
		<path id="XMLID_1275_" d="M394.91,194.747v1.265c0,4.143,3.357,7.5,7.5,7.5s7.5-3.357,7.5-7.5v-1.265c0-4.143-3.357-7.5-7.5-7.5    S394.91,190.605,394.91,194.747z"/>
	</g>
</g>















</svg>
