<?xml version="1.0" encoding="iso-8859-1"?>
<!-- Generator: Adobe Illustrator 19.0.0, SVG Export Plug-In . SVG Version: 6.00 Build 0)  -->
<svg xmlns="http://www.w3.org/2000/svg" xmlns:xlink="http://www.w3.org/1999/xlink" version="1.1" id="Layer_1" x="0px" y="0px" viewBox="0 0 511.999 511.999" style="enable-background:new 0 0 511.999 511.999;" xml:space="preserve" width="512" height="512">
<g id="XMLID_1980_">
	<g id="XMLID_579_">
		<g id="XMLID_580_">
			<g id="XMLID_581_">
				<g id="XMLID_582_">
					<path id="XMLID_583_" style="fill:#88A5A0;" d="M348.768,479.751H163.231c-7.488,0-10.714-9.521-4.751-14.057       c14.546-11.046,24.067-24.849,30.284-38.085c11.359-24.126,11.75-46.316,11.75-46.316h110.97c0,0,0.391,22.19,11.75,46.316       c6.217,13.236,15.738,27.039,30.284,38.085C359.482,470.23,356.256,479.751,348.768,479.751z"/>
					<path id="XMLID_584_" style="fill:#718987;" d="M319.303,418.24c-7.519-20.207-7.818-36.946-7.818-36.946h-110.97       c0,0-0.3,16.74-7.818,36.946H319.303z"/>
					<path id="XMLID_586_" style="fill:#E2FFFE;" d="M504.49,69.08V338.1H7.499V69.08c0-20.346,16.479-36.825,36.815-36.825h423.361       C488.011,32.255,504.49,48.734,504.49,69.08z"/>
					<rect id="XMLID_587_" x="7.499" y="316.081" style="fill:#B0D1CF;" width="496.991" height="22.02"/>
					<path id="XMLID_590_" style="fill:#FF6A66;" d="M303.334,32.255v186.136H7.499V69.08c0-20.338,16.487-36.825,36.825-36.825       H303.334z"/>
					<path id="XMLID_2278_" style="fill:#88A5A0;" d="M488.207,400.238H23.792c-8.998,0-16.292-7.294-16.292-16.292v-52.564h496.999       v52.564C504.499,392.944,497.205,400.238,488.207,400.238z"/>
				</g>
			</g>
			<g id="XMLID_592_">
				<circle id="XMLID_2276_" style="fill:#FF6A66;" cx="256" cy="365.81" r="11.173"/>
			</g>
		</g>
		<g id="XMLID_593_">
			<g id="XMLID_595_">
				<path id="XMLID_596_" style="fill:#E2FFFE;" d="M130.103,101.951v30.786c0,5.097,5.356,8.418,9.922,6.152l31.01-15.393      c5.086-2.524,5.086-9.779,0-12.303l-31.01-15.393C135.459,93.533,130.103,96.854,130.103,101.951z"/>
			</g>
		</g>
		<g id="XMLID_598_">
			<path id="XMLID_2274_" style="fill:#5089DD;" d="M381.493,114.088h-31.988c-3.581,0-6.484-2.903-6.484-6.484V75.615     c0-3.581,2.903-6.484,6.484-6.484h31.988c3.581,0,6.484,2.903,6.484,6.484v31.988     C387.977,111.185,385.074,114.088,381.493,114.088z"/>
		</g>
		<g id="XMLID_604_">
			<path id="XMLID_2272_" style="fill:#5089DD;" d="M381.493,205.816h-31.988c-3.581,0-6.484-2.903-6.484-6.484v-31.988     c0-3.581,2.903-6.484,6.484-6.484h31.988c3.581,0,6.484,2.903,6.484,6.484v31.988     C387.977,202.913,385.074,205.816,381.493,205.816z"/>
		</g>
		<g id="XMLID_610_">
			<path id="XMLID_2270_" style="fill:#5089DD;" d="M381.493,297.545h-31.988c-3.581,0-6.484-2.903-6.484-6.484v-31.988     c0-3.581,2.903-6.484,6.484-6.484h31.988c3.581,0,6.484,2.903,6.484,6.484v31.988     C387.977,294.642,385.074,297.545,381.493,297.545z"/>
		</g>
	</g>
	<g id="XMLID_709_">
		<path id="XMLID_744_" d="M504.499,140.527c4.143,0,7.5-3.358,7.5-7.5V69.076c0-24.439-19.883-44.322-44.321-44.322h-211.37    c-4.143,0-7.5,3.358-7.5,7.5s3.357,7.5,7.5,7.5h39.526v171.137H15V69.076c0-16.168,13.153-29.322,29.321-29.322H225.69    c4.143,0,7.5-3.358,7.5-7.5s-3.357-7.5-7.5-7.5H44.321C19.883,24.754,0,44.637,0,69.076v314.87    c0,13.119,10.673,23.792,23.792,23.792H83.69c4.143,0,7.5-3.358,7.5-7.5s-3.357-7.5-7.5-7.5H23.792    c-4.848,0-8.792-3.944-8.792-8.792v-45.063h481.999v45.063c0,4.848-3.944,8.792-8.792,8.792H114.308c-4.143,0-7.5,3.358-7.5,7.5    s3.357,7.5,7.5,7.5h74.004c-4.972,16.918-14.827,37.165-34.359,51.987c-5.322,4.04-7.384,10.743-5.253,17.078    c2.135,6.343,7.837,10.441,14.527,10.441h185.546c6.69,0,12.393-4.099,14.527-10.441c2.131-6.335,0.069-13.038-5.253-17.077    c-19.549-14.836-29.399-35.123-34.359-51.988h164.52c13.119,0,23.792-10.673,23.792-23.792V163.645c0-4.142-3.357-7.5-7.5-7.5    s-7.5,3.358-7.5,7.5v160.238H310.834V39.754h156.844c16.168,0,29.321,13.154,29.321,29.322v63.951    C496.999,137.169,500.356,140.527,504.499,140.527z M348.979,471.675c0.097,0.073,0.13,0.119,0.132,0.119    c0.03,0.108-0.061,0.37-0.146,0.429c-0.001,0-0.054,0.021-0.192,0.021H163.227c-0.132,0-0.187-0.019-0.188-0.019    c-0.091-0.063-0.182-0.325-0.154-0.423c0,0,0.03-0.048,0.136-0.128c24.362-18.488,35.639-43.899,40.854-63.937h104.249    C313.322,427.695,324.588,453.164,348.979,471.675z M15,323.883v-97.992h280.834v97.992H15z"/>
		<path id="XMLID_741_" d="M274.673,365.81c0-10.296-8.377-18.673-18.673-18.673c-10.297,0-18.674,8.377-18.674,18.673    s8.377,18.673,18.674,18.673C266.296,384.484,274.673,376.107,274.673,365.81z M252.326,365.81c0-2.025,1.648-3.673,3.674-3.673    s3.673,1.648,3.673,3.673s-1.647,3.673-3.673,3.673S252.326,367.836,252.326,365.81z"/>
		<path id="XMLID_738_" d="M143.359,89.082c-4.488-2.227-9.703-1.981-13.96,0.658c-4.255,2.639-6.796,7.204-6.796,12.211v30.786    c0,5.008,2.541,9.573,6.796,12.211c2.326,1.442,4.938,2.169,7.563,2.169c2.178,0,4.362-0.501,6.397-1.511l31.011-15.393    c4.922-2.443,7.979-7.375,7.979-12.87c0-5.495-3.057-10.426-7.979-12.869L143.359,89.082z M137.604,131.718v-28.747l28.956,14.373    L137.604,131.718z"/>
		<path id="XMLID_735_" d="M395.477,75.615c0-7.711-6.272-13.984-13.983-13.984h-31.988c-7.711,0-13.984,6.273-13.984,13.984v31.988    c0,7.711,6.273,13.984,13.984,13.984h31.988c7.711,0,13.983-6.273,13.983-13.984V75.615z M380.477,106.588h-29.956V76.631h29.956    V106.588z"/>
		<path id="XMLID_734_" d="M415.701,75.061h15.665c4.143,0,7.5-3.358,7.5-7.5s-3.357-7.5-7.5-7.5h-15.665    c-4.143,0-7.5,3.358-7.5,7.5S411.559,75.061,415.701,75.061z"/>
		<path id="XMLID_733_" d="M461.977,87.173h-46.275c-4.143,0-7.5,3.358-7.5,7.5s3.357,7.5,7.5,7.5h46.275c4.143,0,7.5-3.358,7.5-7.5    S466.119,87.173,461.977,87.173z"/>
		<path id="XMLID_732_" d="M461.977,105.567h-46.275c-4.143,0-7.5,3.358-7.5,7.5s3.357,7.5,7.5,7.5h46.275    c4.143,0,7.5-3.358,7.5-7.5S466.119,105.567,461.977,105.567z"/>
		<path id="XMLID_724_" d="M395.477,167.344c0-7.711-6.272-13.984-13.983-13.984h-31.988c-7.711,0-13.984,6.273-13.984,13.984    v31.988c0,7.711,6.273,13.984,13.984,13.984h31.988c7.711,0,13.983-6.273,13.983-13.984V167.344z M380.477,198.316h-29.956V168.36    h29.956V198.316z"/>
		<path id="XMLID_767_" d="M415.701,166.789h15.665c4.143,0,7.5-3.358,7.5-7.5s-3.357-7.5-7.5-7.5h-15.665    c-4.143,0-7.5,3.358-7.5,7.5S411.559,166.789,415.701,166.789z"/>
		<path id="XMLID_779_" d="M461.977,178.901h-46.275c-4.143,0-7.5,3.358-7.5,7.5s3.357,7.5,7.5,7.5h46.275    c4.143,0,7.5-3.358,7.5-7.5S466.119,178.901,461.977,178.901z"/>
		<path id="XMLID_784_" d="M461.977,197.296h-46.275c-4.143,0-7.5,3.358-7.5,7.5s3.357,7.5,7.5,7.5h46.275    c4.143,0,7.5-3.358,7.5-7.5S466.119,197.296,461.977,197.296z"/>
		<path id="XMLID_713_" d="M381.493,245.088h-31.988c-7.711,0-13.984,6.273-13.984,13.984v31.988    c0,7.711,6.273,13.984,13.984,13.984h31.988c7.711,0,13.983-6.273,13.983-13.984v-31.988    C395.477,251.362,389.204,245.088,381.493,245.088z M380.477,290.045h-29.956v-29.957h29.956V290.045z"/>
		<path id="XMLID_819_" d="M415.701,258.518h15.665c4.143,0,7.5-3.358,7.5-7.5s-3.357-7.5-7.5-7.5h-15.665    c-4.143,0-7.5,3.358-7.5,7.5S411.559,258.518,415.701,258.518z"/>
		<path id="XMLID_712_" d="M461.977,270.63h-46.275c-4.143,0-7.5,3.358-7.5,7.5s3.357,7.5,7.5,7.5h46.275c4.143,0,7.5-3.358,7.5-7.5    S466.119,270.63,461.977,270.63z"/>
		<path id="XMLID_710_" d="M461.977,289.024h-46.275c-4.143,0-7.5,3.358-7.5,7.5s3.357,7.5,7.5,7.5h46.275    c4.143,0,7.5-3.358,7.5-7.5S466.119,289.024,461.977,289.024z"/>
		<path id="XMLID_829_" d="M250.872,259.526h21.104c4.143,0,7.5-3.358,7.5-7.5s-3.357-7.5-7.5-7.5h-21.104    c-4.143,0-7.5,3.358-7.5,7.5S246.729,259.526,250.872,259.526z"/>
		<path id="XMLID_832_" d="M271.977,283.534h-21.104c-4.143,0-7.5,3.358-7.5,7.5s3.357,7.5,7.5,7.5h21.104    c4.143,0,7.5-3.358,7.5-7.5S276.119,283.534,271.977,283.534z"/>
		<path id="XMLID_833_" d="M192.696,244.526H42.742c-4.143,0-7.5,3.358-7.5,7.5s3.357,7.5,7.5,7.5h149.954    c4.143,0,7.5-3.358,7.5-7.5S196.839,244.526,192.696,244.526z"/>
		<path id="XMLID_834_" d="M73.478,269.049H42.742c-4.143,0-7.5,3.358-7.5,7.5s3.357,7.5,7.5,7.5h30.735c4.143,0,7.5-3.358,7.5-7.5    S77.62,269.049,73.478,269.049z"/>
		<path id="XMLID_835_" d="M73.478,293.543H42.742c-4.143,0-7.5,3.358-7.5,7.5s3.357,7.5,7.5,7.5h30.735c4.143,0,7.5-3.358,7.5-7.5    S77.62,293.543,73.478,293.543z"/>
	</g>
</g>















</svg>
