<?xml version="1.0" encoding="iso-8859-1"?>
<!-- Generator: Adobe Illustrator 19.0.0, SVG Export Plug-In . SVG Version: 6.00 Build 0)  -->
<svg xmlns="http://www.w3.org/2000/svg" xmlns:xlink="http://www.w3.org/1999/xlink" version="1.1" id="Layer_1" x="0px" y="0px" viewBox="0 0 512 512" style="enable-background:new 0 0 512 512;" xml:space="preserve" width="512" height="512">
<g id="XMLID_2305_">
	<g id="XMLID_1119_">
		<path id="XMLID_1232_" style="fill:#FF6A66;" d="M402.036,34.786v442.428c0,15.073-12.223,27.286-27.286,27.286H137.25    c-15.073,0-27.286-12.213-27.286-27.286V34.786c0-15.073,12.213-27.286,27.286-27.286H374.75    C389.813,7.5,402.036,19.713,402.036,34.786z"/>
		<path id="XMLID_1235_" style="fill:#FF433E;" d="M402.036,419.863v57.351c0,15.073-12.223,27.286-27.286,27.286H137.25    c-15.073,0-27.286-12.213-27.286-27.286v-57.351H402.036z"/>
		<rect id="XMLID_1236_" x="340.191" y="203" style="fill:#B0D1CF;" width="61.845" height="235.126"/>
		<rect id="XMLID_1237_" x="340.191" y="419.868" style="fill:#88A5A0;" width="61.845" height="18.258"/>
		<path id="XMLID_1241_" style="fill:#FF433E;" d="M402.036,34.786v56.489H109.964V34.786c0-15.073,12.213-27.286,27.286-27.286    H374.75C389.813,7.5,402.036,19.713,402.036,34.786z"/>
		<path id="XMLID_1242_" style="fill:#E2FFFE;" d="M402.036,34.786v38.231H109.964V34.786c0-15.073,12.213-27.286,27.286-27.286    H374.75C389.813,7.5,402.036,19.713,402.036,34.786z"/>
		<path id="XMLID_1243_" style="fill:#E2FFFE;" d="M402.036,438.121v39.093c0,15.073-12.223,27.286-27.286,27.286H137.25    c-15.073,0-27.286-12.213-27.286-27.286v-39.093H402.036z"/>
		<path id="XMLID_1253_" style="fill:#5089DD;" d="M288.601,335.099v103.027h-65.202V335.099c0-2.343,0.243-4.615,0.71-6.816    c3.134-14.728,16.219-25.785,31.891-25.785c9.007,0,17.153,3.652,23.056,9.545c4.362,4.372,7.496,9.971,8.835,16.24    C288.358,330.483,288.601,332.756,288.601,335.099z"/>
		<rect id="XMLID_1256_" x="223.399" y="419.868" style="fill:#2358C1;" width="65.202" height="18.258"/>
		<path id="XMLID_1259_" style="fill:#2358C1;" d="M287.891,328.282c-9.22,5.873-20.165,9.281-31.891,9.281    s-22.671-3.408-31.891-9.281c3.134-14.728,16.219-25.785,31.891-25.785c9.007,0,17.153,3.652,23.056,9.545    C283.418,316.415,286.552,322.014,287.891,328.282z"/>
		<g id="XMLID_1260_">
			<path id="XMLID_1263_" style="fill:#FFD9AB;" d="M300.278,278.066c0,24.455-19.823,44.278-44.278,44.278     c-24.455,0-44.278-19.823-44.278-44.278c0-6.272,2.914-14.559,7.248-23.422c8.781-17.961,23.397-38.26,31.392-48.84     c2.826-3.744,8.451-3.744,11.283,0c9.985,13.222,30.321,41.636,36.682,61.682C299.568,271.389,300.278,274.974,300.278,278.066z"/>
			<path id="XMLID_1266_" style="fill:#EF9D45;" d="M298.327,267.486c-39.71,13.919-67.111-2.521-79.357-12.842     c8.781-17.961,23.397-38.26,31.392-48.84c2.826-3.744,8.451-3.744,11.283,0C271.629,219.026,291.966,247.441,298.327,267.486z"/>
		</g>
	</g>
	<g id="XMLID_1435_">
		<path id="XMLID_1464_" d="M374.75,0H137.25c-19.181,0-34.786,15.605-34.786,34.786v157.571c0,4.143,3.358,7.5,7.5,7.5    s7.5-3.357,7.5-7.5V80.517h277.071v45.175c0,4.143,3.358,7.5,7.5,7.5s7.5-3.357,7.5-7.5V34.786C409.536,15.605,393.931,0,374.75,0    z M117.464,65.517v-30.73c0-10.91,8.876-19.786,19.786-19.786H374.75c10.91,0,19.786,8.876,19.786,19.786v30.73H117.464z"/>
		<path id="XMLID_1452_" d="M402.036,148.809c-4.142,0-7.5,3.357-7.5,7.5v39.188h-54.345c-4.142,0-7.5,3.357-7.5,7.5v227.625    h-36.586v-95.518c0-6.791-1.671-13.31-4.862-19.152c10.162-9.459,16.536-22.939,16.536-37.885c0-3.682-0.778-7.844-2.16-12.336    c-0.059-0.242-0.129-0.484-0.214-0.725c-0.031-0.09-0.072-0.173-0.107-0.261c-6.217-19.203-23.056-44.115-37.669-63.461    c-2.779-3.679-7.017-5.788-11.628-5.788s-8.849,2.109-11.627,5.788c-18.316,24.25-40.149,57.255-40.149,76.783    c0,14.945,6.373,28.424,16.534,37.883c-3.192,5.843-4.863,12.363-4.863,19.154v41.921c0,4.143,3.358,7.5,7.5,7.5    s7.5-3.357,7.5-7.5v-41.921c0-3.705,0.808-7.274,2.333-10.552c6.877,3.383,14.606,5.291,22.773,5.291    c8.167,0,15.895-1.908,22.772-5.29c1.524,3.277,2.332,6.845,2.332,10.551v95.518h-50.21v-22.979c0-4.143-3.358-7.5-7.5-7.5    s-7.5,3.357-7.5,7.5v22.979h-98.431V311.806c17.008,13.695,27.52,34.273,28.399,56.285c-8.846,3.125-15.203,11.566-15.203,21.469    c0,12.553,10.212,22.765,22.765,22.765s22.765-10.212,22.765-22.765c0-9.942-6.409-18.411-15.311-21.505    c-0.992-29.423-16.37-56.765-40.909-72.971h23.673c3.108,8.878,11.564,15.265,21.489,15.265c12.552,0,22.765-10.212,22.765-22.765    s-10.212-22.765-22.765-22.765c-9.925,0-18.382,6.387-21.489,15.265h-26.177v-57.108c0-4.143-3.358-7.5-7.5-7.5    s-7.5,3.357-7.5,7.5v254.238c0,19.181,15.605,34.786,34.786,34.786H374.75c19.181,0,34.786-15.605,34.786-34.786V156.309    C409.536,152.166,406.178,148.809,402.036,148.809z M256.001,210.777c15.291,20.293,26.664,38.598,32.462,51.878    c-27.781,7.25-48.109-1.719-59.957-10.114C234.879,240.694,244.289,226.32,256.001,210.777z M219.224,278.066    c0-2.993,0.977-6.979,2.814-11.763c10.686,7.108,26.273,14.089,46.273,14.089c7.526,0,15.681-0.995,24.43-3.338    c0.023,0.348,0.037,0.687,0.037,1.012c0,20.278-16.498,36.776-36.777,36.776C235.722,314.843,219.224,298.345,219.224,278.066z     M153.424,397.324c-4.281,0-7.765-3.483-7.765-7.765s3.483-7.765,7.765-7.765s7.765,3.483,7.765,7.765    S157.706,397.324,153.424,397.324z M347.691,426.186h13.279c4.142,0,7.5-3.357,7.5-7.5s-3.358-7.5-7.5-7.5h-13.279v-10.824h13.279    c4.142,0,7.5-3.357,7.5-7.5s-3.358-7.5-7.5-7.5h-13.279v-10.824h13.279c4.142,0,7.5-3.357,7.5-7.5s-3.358-7.5-7.5-7.5h-13.279    v-10.823h23.422c4.142,0,7.5-3.357,7.5-7.5s-3.358-7.5-7.5-7.5h-23.422V322.89h13.279c4.142,0,7.5-3.357,7.5-7.5    s-3.358-7.5-7.5-7.5h-13.279v-10.824h13.279c4.142,0,7.5-3.357,7.5-7.5s-3.358-7.5-7.5-7.5h-13.279v-10.823h13.279    c4.142,0,7.5-3.357,7.5-7.5s-3.358-7.5-7.5-7.5h-13.279v-10.824h23.422c4.142,0,7.5-3.357,7.5-7.5s-3.358-7.5-7.5-7.5h-23.422    v-19.922h46.845v220.125h-46.845V426.186z M165.13,279.819c4.281,0,7.765,3.483,7.765,7.765s-3.483,7.765-7.765,7.765    s-7.765-3.483-7.765-7.765S160.849,279.819,165.13,279.819z M374.75,497H137.25c-10.91,0-19.786-8.876-19.786-19.786v-31.593    h277.071v31.593C394.536,488.124,385.66,497,374.75,497z"/>
		<path id="XMLID_1451_" d="M228.617,145.514v-1.518c0-4.143-3.358-7.5-7.5-7.5s-7.5,3.357-7.5,7.5v1.518c0,4.143,3.358,7.5,7.5,7.5    S228.617,149.656,228.617,145.514z"/>
		<path id="XMLID_1450_" d="M263.5,145.514v-1.518c0-4.143-3.358-7.5-7.5-7.5s-7.5,3.357-7.5,7.5v1.518c0,4.143,3.358,7.5,7.5,7.5    S263.5,149.656,263.5,145.514z"/>
		<path id="XMLID_1445_" d="M298.383,145.514v-1.518c0-4.143-3.358-7.5-7.5-7.5s-7.5,3.357-7.5,7.5v1.518c0,4.143,3.358,7.5,7.5,7.5    S298.383,149.656,298.383,145.514z"/>
		<path id="XMLID_1442_" d="M266.793,32.759H190.86c-4.142,0-7.5,3.357-7.5,7.5s3.358,7.5,7.5,7.5h75.933c4.142,0,7.5-3.357,7.5-7.5    S270.936,32.759,266.793,32.759z"/>
		<path id="XMLID_1441_" d="M321.14,32c-4.142,0-7.5,3.357-7.5,7.5v1.518c0,4.143,3.358,7.5,7.5,7.5s7.5-3.357,7.5-7.5V39.5    C328.64,35.357,325.282,32,321.14,32z"/>
		<path id="XMLID_1438_" d="M300.278,32c-4.142,0-7.5,3.357-7.5,7.5v1.518c0,4.143,3.358,7.5,7.5,7.5s7.5-3.357,7.5-7.5V39.5    C307.778,35.357,304.42,32,300.278,32z"/>
		<path id="XMLID_1436_" d="M277.481,463.811h-42.963c-4.142,0-7.5,3.357-7.5,7.5s3.358,7.5,7.5,7.5h42.963    c4.142,0,7.5-3.357,7.5-7.5S281.624,463.811,277.481,463.811z"/>
	</g>
</g>















</svg>
