<?xml version="1.0" encoding="iso-8859-1"?>
<!-- Generator: Adobe Illustrator 19.0.0, SVG Export Plug-In . SVG Version: 6.00 Build 0)  -->
<svg version="1.1" id="Capa_1" xmlns="http://www.w3.org/2000/svg" xmlns:xlink="http://www.w3.org/1999/xlink" x="0px" y="0px"
	 viewBox="0 0 512 512" style="enable-background:new 0 0 512 512;" xml:space="preserve">
<path style="fill:#B0BEC5;" d="M7.75,122.5V426c0,16.569,13.431,30,30,30h437c16.569,0,30-13.431,30-30V122.5H7.75z"/>
<rect x="7.75" y="122.5" style="fill:#90A4AE;" width="497" height="20"/>
<path style="fill:#55A3F9;" d="M7.75,122.5V426c0,16.569,13.431,30,30,30H267V122.5H7.75z"/>
<rect x="7.75" y="56" style="fill:#B0BEC5;" width="497" height="66.5"/>
<polygon style="fill:#7CB342;" points="320.5,269.68 321.03,270.5 319.77,270.5 "/>
<rect x="7.75" y="122.5" style="fill:#0F92F4;" width="259.25" height="20"/>
<path style="fill:#80D8FF;" d="M236.75,219.25v140c0,16.569-13.431,30-30,30h-140c-16.569,0-30-13.431-30-30v-140
	c0-16.569,13.431-30,30-30h140C223.319,189.25,236.75,202.681,236.75,219.25z"/>
<path style="fill:#9CCC65;" d="M236.75,342.19v17.06c0,16.57-13.43,30-30,30H90.08L177,238.7L236.75,342.19z"/>
<path style="fill:#ED593B;" d="M105.72,216.919c-0.852,23.835-20.42,43.2-44.262,43.816c-9.055,0.234-17.528-2.17-24.708-6.524
	v-34.96c0-16.569,13.431-30,30-30h30.84C103.035,197.043,106.088,206.624,105.72,216.919z"/>
<polygon style="fill:#7CB342;" points="195.47,389.25 90.08,389.25 138.37,305.62 "/>
<path style="fill:#9CCC65;" d="M43.934,378.718c5.502,6.442,13.679,10.532,22.816,10.532h104.5L104,290.75L43.934,378.718z"/>
<path d="M0,48.5V426c0,20.678,16.822,37.5,37.5,37.5h437c20.678,0,37.5-16.822,37.5-37.5V48.5H0z M259.5,448.5h-222
	C25.094,448.5,15,438.406,15,426V130h244.5V448.5z M497,426c0,12.406-10.094,22.5-22.5,22.5h-200V130H497V426z M497,115H15V63.5h482
	V115z"/>
<rect x="455.75" y="81.75" width="15" height="15"/>
<rect x="140.75" y="81.75" width="300" height="15"/>
<path d="M66.75,396.75h140c20.678,0,37.5-16.822,37.5-37.5v-140c0-20.678-16.822-37.5-37.5-37.5H101.499H66.75
	c-20.678,0-37.5,16.822-37.5,37.5v39.184V359.25C29.25,379.928,46.072,396.75,66.75,396.75z M66.75,381.75
	c-4.831,0-9.308-1.536-12.978-4.137L104,304.051l53.048,77.699H66.75z M229.25,359.25c0,12.406-10.094,22.5-22.5,22.5h-31.539
	l-39.089-57.252L177,253.7l52.25,90.5V359.25z M44.25,219.25c0-12.406,10.094-22.5,22.5-22.5h26.703
	c3.382,6.034,5.023,12.843,4.771,19.901c-0.715,19.998-16.949,36.068-36.961,36.586c-5.911,0.143-11.734-1.053-17.014-3.512
	L44.25,219.25L44.25,219.25z M44.25,265.787c5.141,1.627,10.532,2.463,16.007,2.463c0.465,0,0.93-0.006,1.395-0.019
	c27.917-0.721,50.566-23.143,51.563-51.045c0.253-7.079-0.872-13.981-3.281-20.437h96.816c12.406,0,22.5,10.094,22.5,22.5v94.95
	L177,223.7l-50.262,87.052L104,277.449l-59.204,86.708c-0.353-1.581-0.546-3.222-0.546-4.908V265.787z"/>
<g>
	<path style="fill:#FFFFFF;" d="M104.75,96.75h-15v-15h15V96.75z M74.75,96.75h-15v-15h15V96.75z M44.75,96.75h-15v-15h15V96.75z"/>
	<path style="fill:#FFFFFF;" d="M457.25,353h-55v-15h55V353z M387.25,353h-15v-15h15V353z M357.25,353h-60v-15h60V353z"/>
	<path style="fill:#FFFFFF;" d="M372.25,387.5h-15v-15h15V387.5z M342.25,387.5h-15v-15h15V387.5z M312.25,387.5h-15v-15h15V387.5z"
		/>
	<path style="fill:#FFFFFF;" d="M457.25,284h-55v-15h55V284z M387.25,284h-15v-15h15V284z M357.25,284h-60v-15h60V284z"/>
	<path style="fill:#FFFFFF;" d="M457.25,318.5h-115v-15h115V318.5z M327.25,318.5h-30v-15h30V318.5z"/>
	<path style="fill:#FFFFFF;" d="M457.25,215h-55v-15h55V215z M387.25,215h-15v-15h15V215z M357.25,215h-60v-15h60V215z"/>
	<path style="fill:#FFFFFF;" d="M457.25,249.5h-115v-15h115V249.5z M327.25,249.5h-30v-15h30V249.5z"/>
	<rect x="135" y="213" style="fill:#FFFFFF;" width="15" height="15"/>
	<rect x="119" y="252" style="fill:#FFFFFF;" width="15" height="15"/>
	<rect x="58" y="285" style="fill:#FFFFFF;" width="15" height="15"/>
	<rect x="196" y="213" style="fill:#FFFFFF;" width="15" height="15"/>
</g>
<g>
</g>
<g>
</g>
<g>
</g>
<g>
</g>
<g>
</g>
<g>
</g>
<g>
</g>
<g>
</g>
<g>
</g>
<g>
</g>
<g>
</g>
<g>
</g>
<g>
</g>
<g>
</g>
<g>
</g>
</svg>
